{"glyphs":{"0":{"ha":732,"x_min":14,"x_max":715,"o":"m 14 486 q 31 363 14 433 q 81 223 49 292 q 158 99 113 154 q 258 21 203 43 q 320 7 286 10 q 383 4 354 4 q 451 7 411 4 q 514 26 490 10 q 672 263 628 132 q 715 546 715 393 q 692 703 715 621 q 625 853 669 785 q 515 967 581 922 q 365 1011 450 1011 q 284 996 322 1011 q 213 956 246 981 q 153 898 181 931 q 107 831 126 865 q 72 776 90 803 q 46 717 53 749 q 25 603 36 664 q 14 486 14 542 m 144 504 q 165 659 144 588 q 238 799 185 731 q 265 830 253 818 q 290 848 276 842 q 319 856 303 854 q 361 858 336 858 q 411 858 390 858 q 460 847 432 857 q 469 838 463 844 q 484 823 476 831 q 499 808 492 815 q 508 799 506 801 q 521 783 513 793 q 531 771 529 774 l 585 657 q 592 629 590 646 q 596 595 594 613 q 597 561 597 578 q 597 535 597 546 q 597 521 597 531 q 597 500 597 511 q 596 479 596 489 q 596 467 596 471 q 591 444 592 454 q 590 426 590 435 q 588 406 589 417 q 585 379 588 394 q 541 260 574 315 q 460 163 508 204 q 445 152 456 158 q 432 146 435 146 l 297 146 q 260 174 278 161 q 226 206 243 186 q 224 210 225 206 q 221 217 222 214 q 201 251 213 235 q 182 288 189 268 q 154 394 164 339 q 144 504 144 450 z "},"1":{"ha":688,"x_min":13,"x_max":672,"o":"m 36 22 q 49 19 40 21 q 69 14 58 17 q 88 9 79 11 q 101 7 97 7 q 113 6 103 7 q 133 4 122 6 q 153 2 144 3 q 165 1 163 1 q 188 -8 181 -1 q 213 -15 196 -15 q 237 -10 225 -15 q 258 4 249 -4 l 421 4 q 459 13 438 14 q 497 13 481 13 q 540 10 521 13 q 582 7 560 7 q 611 11 596 7 q 640 23 626 15 q 663 42 654 31 q 672 69 672 54 q 667 94 672 81 q 652 118 661 107 q 631 137 643 129 q 606 144 619 144 l 421 144 q 419 147 421 144 q 415 153 417 150 l 410 164 l 410 560 q 417 590 417 575 q 417 622 417 607 q 413 676 417 650 q 410 729 410 701 q 413 782 410 757 q 417 835 417 807 q 414 878 417 856 q 403 921 411 900 q 381 957 396 942 q 344 978 367 972 q 301 979 332 978 q 237 981 271 981 q 172 983 203 982 q 128 983 140 983 l 125 983 q 52 971 81 983 q 24 910 24 958 q 40 870 24 889 q 79 851 56 851 l 281 851 l 285 843 q 286 824 285 843 q 288 778 288 804 q 290 725 289 753 q 290 679 290 697 q 291 669 290 678 q 292 654 292 660 q 288 433 292 542 q 285 207 283 324 q 283 191 283 203 q 280 167 282 179 q 276 147 278 156 q 269 136 274 138 l 239 136 q 183 140 210 136 q 125 143 156 143 q 97 142 118 143 q 68 142 75 142 q 42 135 53 143 q 24 114 31 126 q 15 88 18 101 q 13 61 13 74 q 15 39 13 49 q 36 22 18 29 z "},"2":{"ha":699,"x_min":14,"x_max":682,"o":"m 201 89 q 231 83 217 89 q 258 72 246 78 q 276 63 263 69 q 307 47 290 56 q 338 31 324 39 q 356 22 351 24 q 364 20 357 22 q 378 17 371 18 q 392 14 385 15 q 400 13 399 13 q 435 -5 421 6 q 474 -15 449 -15 q 511 -6 497 -15 q 546 13 525 4 q 651 83 619 39 q 682 204 682 128 q 682 236 682 219 q 678 269 682 254 q 664 295 674 285 q 633 306 654 306 q 592 287 603 306 q 576 242 581 268 q 565 190 571 217 q 540 147 560 163 q 495 138 511 140 q 453 136 479 136 q 390 149 418 136 q 334 178 361 163 q 278 206 307 193 q 214 219 249 219 q 188 218 199 219 q 161 213 176 217 q 154 221 154 214 q 154 231 154 228 q 155 237 154 233 q 156 240 156 240 l 231 322 q 238 326 231 322 q 256 335 246 329 q 278 346 267 340 q 296 354 289 351 q 356 375 326 369 q 415 392 385 381 q 522 441 475 413 q 599 509 568 469 q 647 601 631 549 q 663 721 663 653 q 662 749 663 728 q 660 778 661 771 q 620 880 651 836 q 544 953 589 924 q 447 998 500 983 q 339 1013 393 1013 q 256 1001 297 1013 q 179 969 215 990 q 115 917 143 947 q 68 849 86 886 q 46 798 57 825 q 35 743 35 771 q 42 698 35 722 q 61 653 49 674 q 92 618 74 632 q 136 604 111 604 q 213 642 188 604 q 238 726 238 681 q 232 756 238 743 q 220 778 226 768 q 209 797 214 789 q 204 813 204 806 q 210 833 204 825 q 226 849 217 842 q 259 861 244 857 q 288 867 274 865 q 315 870 301 869 q 347 871 329 871 q 441 862 394 871 q 514 811 488 853 q 531 781 521 800 q 540 761 540 763 l 540 642 q 539 638 540 642 q 535 631 538 633 q 489 575 515 603 q 426 539 463 547 q 415 538 424 539 q 397 536 407 538 q 377 534 386 535 q 367 533 368 533 q 356 531 364 533 q 346 528 347 529 q 332 517 343 526 q 318 506 321 508 q 256 475 289 486 q 193 442 222 464 q 60 283 107 376 q 14 82 14 190 q 28 30 14 49 q 78 11 42 11 q 113 23 99 11 q 139 49 126 35 q 166 76 151 64 q 201 89 181 89 z "},"3":{"ha":688,"x_min":14,"x_max":671,"o":"m 14 221 q 29 157 14 189 q 68 98 44 125 q 122 51 92 71 q 182 22 153 31 q 191 20 183 22 q 207 17 199 18 q 222 14 215 15 q 231 13 229 13 q 266 -3 250 7 q 301 -15 282 -14 l 353 -15 l 406 -15 q 433 -2 421 -11 q 460 13 444 7 q 531 43 501 25 q 582 86 560 61 q 621 144 604 111 q 654 218 638 176 q 659 232 656 222 q 665 252 663 242 q 669 272 667 263 q 671 283 671 281 l 671 419 q 645 504 671 460 q 589 576 619 549 q 578 587 585 581 q 564 599 571 593 q 551 610 557 606 q 546 615 546 615 l 449 653 q 439 660 440 656 q 438 671 438 664 q 451 703 438 690 q 475 729 465 717 q 510 769 488 746 q 553 820 532 793 q 590 874 574 847 q 606 924 606 901 q 591 970 606 951 q 546 989 576 989 l 301 989 q 256 984 275 985 q 211 983 238 983 q 176 986 192 983 q 142 989 160 989 q 108 981 121 989 q 86 959 94 972 q 72 930 78 946 q 63 897 67 914 q 57 875 61 890 q 49 842 53 860 q 41 810 44 825 q 36 789 38 794 q 35 785 36 788 q 35 781 35 782 q 52 733 35 753 q 99 713 69 713 q 144 734 131 713 q 161 781 157 756 q 168 827 165 806 q 182 849 171 849 l 407 849 q 404 826 407 833 q 397 812 401 818 q 385 799 392 806 q 372 783 379 793 q 366 773 371 781 q 356 756 361 765 q 346 738 350 746 q 340 729 342 731 q 306 690 326 710 q 266 650 285 671 q 233 607 247 629 q 219 560 219 585 q 235 517 219 528 q 282 506 251 506 q 324 511 307 506 q 361 533 342 517 l 443 533 q 522 450 492 493 q 553 338 553 407 q 533 231 553 279 q 465 147 514 183 q 430 132 450 136 q 394 115 410 128 l 290 115 q 265 128 281 124 q 234 140 249 133 q 209 157 219 147 q 199 183 199 167 q 207 218 199 201 q 215 254 215 235 q 210 292 215 272 q 195 328 206 311 q 169 355 185 344 q 131 365 153 365 q 76 353 99 365 q 40 322 54 342 q 20 276 26 301 q 14 221 14 250 z "},"4":{"ha":732,"x_min":14,"x_max":715,"o":"m 253 67 q 269 31 253 46 q 307 15 285 15 l 628 15 q 668 32 653 15 q 683 72 683 49 q 673 117 683 101 q 645 138 663 132 q 606 145 628 144 q 558 146 583 146 q 541 157 551 149 q 531 174 531 165 l 531 243 q 536 250 531 247 q 549 255 542 253 q 562 258 556 257 q 568 260 568 260 q 589 261 574 260 q 621 263 604 263 q 652 265 638 264 q 672 265 667 265 q 715 318 715 276 q 711 340 715 328 q 700 364 707 353 q 683 383 693 375 q 661 390 674 390 l 539 390 l 539 896 q 537 907 539 897 q 531 929 535 917 q 524 953 528 942 q 519 972 521 965 q 492 1009 513 996 q 446 1022 471 1022 q 405 1010 421 1022 q 377 978 389 997 q 356 939 365 960 q 335 901 346 918 q 226 726 274 817 q 128 543 179 635 q 69 438 99 490 q 14 331 40 385 l 14 317 q 35 274 14 293 q 79 254 56 254 l 324 254 q 351 260 339 260 q 376 261 363 261 q 388 260 381 261 q 394 260 394 260 l 406 249 l 406 168 l 394 157 q 339 148 367 154 q 286 135 311 142 q 260 105 267 124 q 253 67 253 86 m 193 399 q 208 448 193 414 q 244 525 222 482 q 292 614 265 568 q 344 697 319 660 q 390 759 369 735 q 418 783 410 783 q 414 683 418 731 q 410 583 410 635 q 413 529 410 556 q 417 475 417 503 q 417 457 417 468 q 417 434 418 446 q 412 412 415 422 q 400 396 408 401 q 321 390 360 394 q 242 385 282 385 l 199 385 q 193 390 193 386 q 193 399 193 396 z "},"5":{"ha":650,"x_min":14,"x_max":635,"o":"m 14 226 q 28 166 14 197 q 65 106 43 135 q 115 54 88 76 q 167 22 142 32 q 204 15 185 15 q 242 7 224 14 q 272 -8 258 0 q 304 -15 286 -15 q 350 -5 328 -15 q 394 13 372 6 q 403 14 396 13 q 418 17 410 15 q 434 20 426 18 q 443 22 442 22 q 455 28 447 24 q 472 36 463 32 q 488 44 481 40 q 497 50 494 49 q 556 113 531 74 q 599 196 582 151 q 626 285 617 240 q 635 367 635 331 q 610 495 635 435 q 557 615 585 556 q 476 692 518 656 q 454 698 469 693 q 422 707 439 703 q 388 715 404 711 q 367 718 372 718 q 347 719 365 719 q 321 719 331 719 q 256 708 286 719 q 193 696 226 696 q 176 713 182 696 q 171 738 171 729 l 171 740 q 174 756 172 743 q 176 772 176 769 q 178 787 176 776 q 180 808 179 797 q 181 829 181 819 q 182 843 182 839 q 206 857 189 854 q 232 860 222 860 l 400 860 q 437 853 417 853 q 474 854 457 854 q 508 855 490 854 q 541 861 526 856 q 565 878 556 867 q 574 913 574 890 q 540 983 574 965 q 463 1001 507 1001 q 422 999 442 1001 q 381 996 401 996 q 302 1001 340 996 q 224 1007 264 1007 q 184 1006 204 1007 q 144 1001 164 1006 q 108 988 125 997 q 79 963 92 979 q 58 870 64 918 q 51 775 51 822 q 55 721 51 747 q 58 667 58 694 q 52 585 58 625 q 46 501 46 544 q 62 461 46 481 q 101 442 78 442 q 128 449 118 442 q 144 467 138 456 q 157 490 151 478 q 171 513 163 501 q 212 551 189 536 q 258 582 235 567 q 269 588 264 588 l 383 588 q 405 577 392 588 q 431 553 418 567 q 456 524 444 539 q 471 501 467 510 q 480 483 475 494 q 490 459 485 471 q 499 439 496 447 q 503 431 503 431 l 503 283 q 493 246 503 265 q 469 209 483 226 q 438 176 454 192 q 411 153 422 161 q 377 142 397 142 q 340 138 357 143 q 316 123 326 132 q 292 114 306 114 q 265 119 283 114 q 227 135 246 125 q 194 156 208 144 q 182 181 181 168 q 192 215 185 200 q 199 249 199 229 q 178 320 199 292 q 115 349 158 349 q 40 312 65 349 q 14 226 14 275 z "},"6":{"ha":672,"x_min":14,"x_max":656,"o":"m 14 411 l 14 379 q 15 371 14 378 q 19 356 17 364 q 23 340 21 347 q 25 331 25 332 q 60 203 38 261 q 118 103 82 144 q 209 38 154 61 q 342 14 264 14 q 472 38 418 14 q 561 103 525 61 q 619 206 597 146 q 656 336 642 265 l 656 356 q 645 419 656 382 q 617 495 635 457 q 578 566 600 533 q 531 614 556 599 q 493 633 513 625 q 454 647 474 640 q 415 660 435 653 q 378 679 396 668 l 303 679 q 277 667 292 679 q 253 651 263 656 q 234 644 246 649 q 210 635 222 639 q 190 628 199 631 q 182 625 182 625 l 168 625 q 188 699 168 658 q 239 776 208 739 q 306 841 269 813 q 372 881 342 869 l 381 881 q 392 878 388 881 q 400 869 397 876 q 431 795 411 825 q 500 765 450 765 q 571 791 544 765 q 597 861 597 817 q 583 933 597 903 q 543 983 568 963 q 485 1013 518 1003 q 414 1022 451 1022 q 363 1018 383 1022 q 326 1006 343 1014 q 292 989 310 999 q 247 967 274 979 q 228 947 242 961 q 198 917 214 933 q 169 885 182 900 q 150 864 156 869 q 144 855 149 863 q 133 839 139 847 q 123 824 128 831 q 117 815 118 817 q 106 801 114 813 q 96 788 99 790 q 28 605 43 700 q 14 411 14 510 m 150 368 q 167 459 150 421 q 232 526 185 497 q 250 537 238 531 q 264 543 263 543 l 389 543 q 431 527 407 543 q 475 488 454 511 q 510 440 496 465 q 525 396 525 414 l 525 271 l 519 260 q 444 176 488 207 q 338 144 401 144 q 317 145 333 144 q 297 146 301 146 q 291 148 294 146 q 286 151 288 150 q 223 195 249 175 q 181 240 197 215 q 158 294 165 264 q 150 368 150 324 z "},"7":{"ha":622,"x_min":14,"x_max":607,"o":"m 231 104 q 231 65 231 89 q 242 28 231 42 q 265 1 254 13 q 296 -10 276 -10 q 343 13 324 -10 q 367 61 363 36 q 367 91 367 69 q 369 137 368 113 q 371 183 369 161 q 372 213 372 204 q 387 285 375 250 q 415 351 399 319 q 451 415 432 383 q 486 479 469 447 q 531 570 511 526 q 565 658 550 614 q 589 749 579 703 q 606 849 599 796 q 606 859 606 849 q 607 876 607 869 q 606 910 607 890 q 598 947 604 929 q 580 978 592 965 q 549 990 568 990 q 515 974 525 990 q 497 938 504 957 q 481 901 490 918 q 449 885 471 885 q 404 904 426 885 q 356 948 382 924 q 302 992 331 972 q 239 1011 274 1011 q 217 1007 228 1011 q 197 997 207 1003 q 176 988 186 992 q 153 983 165 983 q 118 994 132 983 q 82 1006 104 1006 q 28 976 43 1006 q 14 915 14 947 q 15 890 14 900 q 22 864 15 879 l 22 631 q 43 585 22 606 q 88 565 64 565 q 117 575 106 565 q 137 600 129 585 q 147 633 144 615 q 150 667 150 650 q 147 708 150 688 q 143 751 143 729 q 151 793 143 772 q 172 830 158 814 q 206 856 186 846 q 247 865 225 865 q 267 864 258 865 q 285 854 275 863 l 367 778 q 383 770 371 774 q 400 767 396 767 q 413 765 404 767 q 432 763 422 764 q 451 762 442 763 q 464 761 460 761 q 470 756 469 760 q 471 749 471 751 q 458 693 471 725 q 425 629 444 661 q 385 567 406 597 q 350 517 364 538 q 340 492 343 506 q 329 468 336 479 q 314 450 322 458 q 301 431 306 442 q 252 269 274 351 q 231 104 231 188 z "},"8":{"ha":738,"x_min":14,"x_max":721,"o":"m 14 310 l 14 293 q 60 164 26 217 q 142 78 93 111 q 252 29 190 44 q 386 14 314 14 q 400 14 390 14 q 421 15 410 14 q 440 15 432 15 q 454 15 450 15 q 533 42 496 24 q 607 81 571 61 q 691 192 661 129 q 721 328 721 254 q 710 420 721 375 q 672 504 699 465 q 652 522 665 514 q 625 539 639 531 q 601 556 611 547 q 590 578 590 565 l 590 586 q 622 617 607 596 q 650 663 638 638 q 670 713 663 688 q 678 758 678 738 q 667 828 678 792 q 638 897 657 864 q 591 957 618 931 q 531 994 564 983 q 460 1020 494 1007 q 386 1033 425 1033 q 297 1024 342 1033 q 211 994 251 1014 q 139 942 171 974 q 90 864 107 910 q 83 842 88 857 q 75 810 79 826 q 67 777 71 793 q 63 756 64 761 l 63 732 q 70 680 63 703 q 96 631 78 657 q 109 617 100 624 q 127 603 118 610 q 143 588 136 596 q 150 569 150 579 q 141 551 150 560 q 120 535 132 543 q 97 519 108 526 q 79 504 85 511 q 31 413 47 463 q 14 310 14 363 m 139 282 q 138 297 139 285 q 138 311 138 308 q 147 376 138 349 q 174 423 156 403 q 217 458 192 443 q 275 489 243 474 q 293 496 281 492 q 307 500 306 500 l 433 500 q 465 489 439 500 q 518 461 490 478 q 568 425 546 444 q 590 390 590 406 l 590 276 l 585 265 q 558 226 574 246 q 523 192 542 207 q 481 167 504 176 q 433 157 458 157 l 307 157 q 253 167 279 157 q 205 195 226 178 q 166 235 183 213 q 139 282 149 257 m 193 758 q 209 820 193 793 q 251 866 225 847 q 308 894 276 885 q 372 903 340 903 q 434 895 403 903 q 490 872 465 888 q 531 830 515 856 q 547 769 547 804 q 517 676 547 713 q 433 625 486 639 q 407 624 426 624 q 381 624 388 624 q 314 629 347 624 q 253 650 281 635 q 210 691 226 665 q 193 758 193 717 z "},"9":{"ha":667,"x_min":13,"x_max":650,"o":"m 79 160 q 83 115 79 140 q 101 75 88 90 q 117 58 108 68 q 135 38 125 47 q 158 22 146 28 q 182 15 169 15 l 329 15 q 397 41 360 15 q 469 103 433 67 q 533 176 504 139 q 574 239 561 214 q 586 263 578 247 q 602 294 594 279 q 616 322 610 310 q 624 336 622 333 q 639 411 639 374 q 650 489 639 450 l 650 668 q 647 683 650 669 q 639 716 643 697 q 631 755 635 735 q 624 788 626 775 q 582 874 611 833 q 512 946 553 915 q 424 994 471 976 q 329 1011 376 1011 q 195 980 257 1011 q 90 890 133 949 q 76 874 86 886 q 63 853 65 863 l 14 689 q 13 682 14 689 q 13 672 13 675 q 37 555 13 614 q 103 449 61 496 q 199 372 144 401 q 317 342 254 342 q 379 349 349 342 q 438 368 410 357 q 472 388 457 375 q 507 400 486 400 q 484 327 507 371 q 428 242 461 283 q 360 173 396 201 q 297 144 324 144 q 271 163 278 144 q 256 202 264 181 q 232 242 249 224 q 175 260 215 260 q 103 233 128 260 q 79 160 79 207 m 133 703 q 143 752 133 735 q 172 793 153 769 q 206 833 192 818 q 236 857 219 849 q 274 868 253 865 q 332 871 296 871 q 358 870 339 871 q 383 869 378 869 q 488 785 456 839 q 521 654 521 731 q 517 601 521 624 q 502 558 513 578 q 474 522 492 539 q 432 489 457 506 q 412 478 426 485 q 394 472 397 472 l 292 472 q 246 490 267 472 q 210 521 225 508 q 168 560 183 542 q 145 599 153 579 q 135 644 138 619 q 133 703 133 669 z "},"ร":{"ha":694,"x_min":0,"x_max":0,"o":""},"รท":{"ha":694,"x_min":0,"x_max":0,"o":""}," ":{"ha":694,"x_min":0,"x_max":0,"o":""},"!":{"ha":274,"x_min":14,"x_max":257,"o":"m 35 126 q 59 42 35 79 q 136 4 83 4 q 170 10 153 4 q 203 26 188 17 q 233 67 218 46 q 247 115 247 89 q 239 160 247 138 q 215 199 231 182 q 180 227 200 217 q 136 238 160 238 q 60 204 86 238 q 35 126 35 171 m 14 925 q 20 892 14 906 q 31 858 26 878 q 43 783 38 824 q 51 707 49 743 q 60 580 57 642 q 68 453 63 518 q 88 397 71 422 q 138 371 106 371 q 165 377 157 371 q 188 399 174 383 q 204 465 199 431 q 212 534 210 499 q 215 606 214 569 q 219 675 217 642 q 237 785 225 731 q 257 896 249 840 l 257 914 q 255 939 257 925 q 247 965 253 953 q 232 985 242 976 q 208 993 222 993 l 63 993 q 24 971 33 993 q 14 925 14 949 z "},"\"":{"ha":601,"x_min":14,"x_max":586,"o":"m 40 567 q 60 531 40 539 q 104 522 81 522 q 173 554 143 522 q 222 630 203 586 q 250 720 240 674 q 260 796 260 767 q 256 831 260 807 q 247 881 253 856 q 231 928 240 907 q 210 957 221 950 q 192 967 203 961 q 170 977 181 972 q 152 986 160 982 q 144 990 144 990 l 107 990 q 99 986 107 990 q 80 977 90 982 q 59 967 69 972 q 42 957 49 961 q 28 943 33 953 q 20 922 24 933 q 15 898 17 910 q 14 878 14 886 q 30 819 14 840 q 66 786 46 799 q 102 765 86 774 q 118 740 118 756 q 106 694 118 715 q 78 652 93 672 q 52 612 64 632 q 40 567 40 592 m 367 582 q 387 546 367 554 q 431 538 407 538 q 499 569 469 538 q 548 646 529 601 q 576 737 567 690 q 586 813 586 783 q 583 848 586 824 q 573 898 579 872 q 557 945 567 924 q 536 974 547 967 q 519 983 529 978 q 498 993 508 988 q 480 1002 488 999 q 471 1006 472 1006 l 467 1006 q 453 1002 467 1006 q 424 993 440 999 q 390 983 407 988 q 367 974 374 978 q 354 959 360 969 q 346 937 349 949 q 342 913 343 925 q 340 894 340 901 q 356 836 340 857 q 392 803 372 815 q 428 781 413 790 q 444 757 444 772 q 432 710 444 732 q 405 669 419 689 q 378 628 390 649 q 367 582 367 607 z "},"#":{"ha":694,"x_min":50,"x_max":876,"o":"m 250 410 l 92 408 q 68 397 78 408 q 54 371 58 385 q 51 360 51 365 q 50 351 50 356 q 56 335 50 342 q 72 329 61 328 l 219 329 l 142 119 q 141 115 142 118 q 140 110 140 113 q 139 108 139 110 q 139 108 139 108 q 137 102 138 104 q 136 97 136 100 q 142 78 136 86 q 156 69 147 69 q 159 69 157 69 q 163 68 161 68 q 172 69 167 68 q 181 69 176 69 q 199 81 190 74 q 210 101 207 89 l 299 329 l 489 329 l 410 110 q 409 107 410 108 q 408 104 408 106 l 408 101 q 406 98 407 100 q 406 96 406 96 q 413 78 406 85 q 429 69 421 72 l 439 69 l 451 69 q 469 78 461 72 q 479 92 478 83 l 568 329 l 747 328 q 790 341 774 328 q 810 369 807 354 l 810 374 q 808 382 810 378 q 796 400 806 392 q 768 410 786 408 l 597 410 l 667 607 l 826 606 q 859 618 846 606 q 876 646 872 631 l 876 653 l 876 657 q 865 676 875 667 q 836 686 856 685 l 699 686 l 778 885 q 778 888 778 886 q 779 893 779 890 q 781 903 781 899 q 781 911 781 908 q 775 928 781 922 q 764 935 769 933 q 758 936 763 936 q 749 935 754 936 q 739 932 743 933 q 701 901 711 921 q 699 898 700 900 q 699 896 699 896 l 617 686 l 429 686 l 508 906 l 508 919 q 503 933 508 928 q 492 940 497 939 q 486 942 490 942 q 469 939 481 942 q 451 928 460 935 q 439 915 442 922 l 349 686 l 151 685 q 143 682 151 685 q 128 667 135 678 q 118 646 121 657 q 117 636 117 642 q 125 615 117 625 q 151 607 133 606 l 318 607 l 250 410 m 518 410 l 329 410 l 400 607 l 588 607 l 518 410 z "},"$":{"ha":757,"x_min":14,"x_max":743,"o":"m 14 199 q 31 176 22 194 q 49 138 39 158 q 69 97 58 117 q 96 69 81 78 q 110 67 99 68 q 125 64 122 65 q 140 50 128 63 q 154 35 151 38 q 180 26 165 26 q 207 18 194 25 q 222 6 213 15 q 232 -6 232 -3 l 232 -175 l 326 -175 l 326 -18 q 344 -10 339 -15 q 361 -6 350 -6 q 371 -6 365 -6 q 375 -15 376 -7 l 428 -15 l 428 -164 q 421 -175 421 -167 l 524 -175 q 523 -163 524 -172 q 515 -151 522 -154 l 515 -18 q 531 -7 515 -12 q 565 5 546 -1 q 603 19 585 11 q 626 35 621 26 q 629 44 628 36 q 632 53 631 51 q 653 61 639 58 q 672 69 667 64 q 690 99 679 76 q 710 144 700 121 q 730 188 721 168 q 743 210 739 207 l 743 367 q 731 382 736 371 q 722 406 726 393 q 715 431 718 419 q 708 449 711 443 q 693 463 706 451 q 679 478 681 475 q 676 487 678 479 q 672 496 674 494 q 653 510 665 510 q 632 525 640 511 q 629 533 631 526 q 626 542 628 540 q 608 553 618 550 q 585 559 597 557 q 560 563 572 561 q 539 571 549 565 q 529 582 532 575 q 526 597 526 589 q 523 610 525 604 q 515 618 521 615 l 515 904 q 524 915 522 907 q 526 928 526 922 l 542 928 q 560 922 554 928 q 569 910 565 917 q 578 894 574 903 q 592 881 583 886 l 592 817 q 569 786 576 808 q 561 749 561 764 q 564 733 561 743 q 572 713 567 722 q 583 695 576 703 q 597 688 590 688 l 685 688 q 701 701 688 688 q 719 724 714 715 q 723 738 721 725 q 725 753 725 750 q 728 755 726 753 q 731 758 729 757 l 731 811 q 728 813 729 811 q 725 817 726 815 q 703 866 718 839 q 685 915 689 893 l 638 963 q 624 965 626 963 q 619 969 621 967 q 615 976 618 972 q 603 985 613 981 q 588 988 600 986 q 574 992 576 990 q 550 1004 561 996 q 524 1014 539 1013 l 524 1101 l 510 1114 l 468 1114 l 454 1101 l 454 1050 q 440 1043 450 1049 q 425 1038 429 1038 l 422 1038 l 417 1043 q 415 1044 417 1044 q 414 1044 414 1044 q 410 1043 411 1044 l 404 1038 q 394 1037 401 1038 q 385 1036 388 1036 q 342 1060 353 1036 q 335 1114 331 1085 q 318 1122 324 1117 q 303 1126 313 1126 q 285 1121 292 1126 q 274 1109 279 1115 q 264 1097 268 1103 q 256 1090 260 1092 l 256 1026 q 244 1019 256 1025 q 219 1005 233 1013 q 193 992 206 997 q 178 985 181 986 l 125 933 q 111 932 115 936 q 105 921 107 928 q 103 907 103 914 q 101 899 103 900 q 92 889 100 896 q 83 881 85 882 q 77 863 79 874 q 72 840 75 851 q 67 820 69 829 q 61 811 65 811 l 61 688 q 70 674 63 686 q 86 649 78 663 q 101 622 94 635 q 107 607 107 610 l 154 557 l 207 557 q 218 545 208 549 q 236 525 228 542 q 242 519 236 519 l 242 140 q 233 131 233 138 q 232 118 232 125 q 229 106 232 111 q 215 101 226 101 q 207 103 213 101 q 200 106 201 104 l 154 151 q 153 156 154 151 q 153 164 153 161 q 158 183 153 169 q 169 209 163 196 q 183 233 176 222 q 194 244 190 243 l 194 286 q 187 301 190 288 q 175 328 183 314 q 149 356 167 343 q 99 368 132 368 q 86 365 96 368 q 66 358 76 363 q 47 350 56 354 q 38 344 39 346 q 33 331 35 340 q 30 313 32 322 q 24 297 28 304 q 14 286 21 289 l 14 199 m 329 82 l 329 344 l 335 350 l 335 403 l 329 408 l 329 511 q 344 510 332 511 q 358 507 356 508 q 362 503 360 507 q 364 499 364 500 l 428 499 l 428 93 q 419 81 428 90 q 404 69 410 72 q 396 69 404 69 q 385 68 388 68 q 374 69 382 68 q 364 69 367 69 q 362 73 364 71 q 358 76 360 75 q 344 79 356 78 q 329 82 332 81 m 504 403 l 513 408 l 513 475 q 529 473 522 475 q 543 469 536 471 q 558 464 550 467 q 579 461 567 461 q 603 417 585 433 q 638 379 622 401 q 641 365 639 376 q 643 350 643 353 q 647 347 644 349 q 650 344 649 344 l 650 221 q 640 210 647 219 q 626 188 633 200 q 611 165 618 176 q 603 151 604 154 q 586 134 594 140 q 569 122 578 128 q 551 110 560 117 q 533 93 542 104 l 524 93 q 511 94 518 93 q 504 106 504 96 l 504 403 m 393 603 l 329 603 l 329 846 l 338 851 l 338 939 q 351 941 342 939 q 364 950 361 943 l 428 950 l 439 939 l 439 607 q 429 595 439 596 q 414 594 419 594 q 401 594 411 594 q 393 603 392 594 m 139 711 l 139 764 q 135 766 138 764 q 131 769 132 768 l 131 772 q 135 801 131 785 q 149 836 140 818 q 167 869 157 854 q 189 892 178 883 q 198 895 190 893 q 207 899 206 897 q 216 912 215 906 q 219 922 217 918 q 228 928 221 926 q 253 931 235 931 l 253 642 q 246 631 246 638 q 242 618 246 625 l 239 618 q 205 633 221 618 q 176 665 189 647 q 153 697 163 682 q 139 711 143 711 z "},"%":{"ha":922,"x_min":13,"x_max":906,"o":"m 13 -79 q 30 -115 13 -106 q 71 -125 47 -125 q 106 -119 90 -125 q 133 -97 122 -114 q 469 386 303 144 q 814 865 636 628 q 842 900 826 882 q 872 938 857 918 q 896 980 886 958 q 906 1025 906 1001 q 895 1070 906 1051 q 868 1100 885 1089 q 829 1116 851 1111 q 783 1121 807 1121 l 743 1121 q 719 1109 729 1117 q 700 1092 710 1101 q 681 1072 690 1082 q 661 1056 672 1063 q 590 1022 629 1033 q 514 996 550 1010 q 463 970 488 985 q 411 951 439 956 q 390 951 407 951 q 354 949 374 950 q 318 947 335 947 q 297 946 301 946 q 199 912 244 942 q 119 838 153 882 q 65 740 85 793 q 46 639 46 688 q 59 563 46 599 q 96 502 72 528 q 153 461 119 476 q 229 446 188 446 q 319 476 275 446 q 399 550 364 506 q 455 646 433 594 q 476 740 476 697 q 474 780 476 760 q 471 819 471 800 q 477 844 471 836 q 494 857 483 853 q 517 863 504 861 q 542 869 529 865 q 587 891 558 875 q 645 924 615 907 q 700 953 675 940 q 735 967 725 967 q 726 930 735 947 q 703 896 717 913 q 676 863 690 879 q 650 832 661 847 q 602 759 625 796 q 553 685 579 722 q 547 678 551 683 q 536 666 542 672 q 526 654 531 660 q 519 647 521 649 q 513 636 518 644 q 503 617 508 628 q 493 598 497 607 q 488 588 489 589 q 391 458 442 521 q 292 332 340 394 q 281 316 289 329 q 269 299 272 303 q 265 290 268 297 q 256 272 261 282 q 247 254 251 263 q 242 244 243 246 q 233 234 240 242 q 217 217 225 226 q 201 200 208 208 q 193 190 194 192 q 182 172 190 188 q 172 153 174 156 q 97 54 136 103 q 19 -43 57 6 q 16 -49 18 -46 q 14 -54 14 -53 q 13 -65 14 -56 q 13 -79 13 -74 m 356 53 q 363 22 356 35 q 432 -78 390 -42 q 544 -114 474 -114 q 596 -106 568 -114 q 649 -85 624 -99 q 697 -52 675 -71 q 732 -11 719 -33 q 777 76 757 32 q 797 171 797 121 q 775 266 797 224 q 715 343 753 308 q 661 357 693 350 q 604 364 629 364 l 601 364 q 585 360 596 363 q 562 356 574 358 q 540 351 550 353 q 525 349 529 349 q 480 321 497 342 q 443 278 463 300 q 433 263 442 275 q 422 244 425 250 q 414 233 419 240 q 402 215 408 225 q 390 196 396 206 q 383 179 385 186 l 357 60 q 356 57 357 60 q 356 53 356 54 m 475 93 q 478 128 475 113 q 488 164 481 144 q 508 188 496 174 q 535 217 521 203 q 565 241 549 231 q 599 251 582 251 q 645 239 624 251 q 678 201 667 226 l 678 165 q 668 114 678 140 q 641 65 658 88 q 600 29 624 43 q 549 15 576 15 q 475 93 475 15 m 160 651 q 172 710 160 681 q 204 764 183 740 q 252 802 225 788 q 311 817 279 817 q 328 815 318 817 q 349 808 339 813 q 365 795 358 803 q 372 778 372 788 l 372 696 q 360 667 372 686 q 331 630 347 649 q 301 597 315 611 q 281 582 286 582 l 199 582 q 180 590 188 582 q 168 608 172 597 q 162 631 164 619 q 160 651 160 643 z "},"&":{"ha":863,"x_min":14,"x_max":846,"o":"m 14 269 q 45 151 14 204 q 122 58 76 99 q 137 44 132 50 q 146 35 142 39 q 156 28 150 31 q 172 21 161 25 q 235 7 200 10 q 300 4 269 4 q 385 24 349 4 q 460 69 421 43 q 481 96 472 78 q 506 114 490 114 q 510 113 507 114 q 514 113 513 113 q 593 44 549 72 q 690 15 638 15 q 722 16 706 15 q 754 26 739 17 q 818 96 790 56 q 846 186 846 136 q 833 233 846 211 q 793 254 821 254 q 760 243 772 254 q 740 217 749 232 q 722 185 731 201 q 699 157 713 168 q 685 155 696 156 q 672 154 675 154 q 646 161 663 154 q 613 179 629 168 q 583 203 596 190 q 568 228 571 217 l 568 263 q 572 295 568 272 q 582 346 575 318 q 598 403 589 374 q 619 456 607 432 q 647 496 632 481 q 678 511 661 511 q 703 498 694 511 q 722 469 713 485 q 743 441 731 454 q 778 428 756 428 q 817 447 810 428 q 825 493 825 467 q 815 546 825 518 q 786 597 804 574 q 743 636 768 621 q 690 651 718 651 q 653 644 672 651 q 617 624 635 636 q 585 598 600 613 q 558 569 569 583 q 534 526 547 557 q 510 465 521 496 q 490 409 499 433 q 476 385 481 385 q 452 405 467 385 q 423 451 438 425 q 398 500 408 476 q 388 529 388 524 q 397 556 388 544 q 420 577 407 567 q 448 597 433 588 q 471 618 463 607 q 522 712 501 658 q 542 815 542 765 q 538 856 542 838 q 525 896 533 875 q 517 917 522 904 q 506 942 511 929 q 497 963 500 954 q 493 972 493 972 l 471 994 q 461 998 471 994 q 438 1006 451 1001 q 411 1014 425 1010 q 389 1021 397 1018 q 367 1027 374 1026 q 343 1028 360 1028 q 266 1006 297 1028 q 215 949 235 983 q 185 874 194 915 q 176 796 176 833 l 176 749 q 178 737 176 746 q 183 717 181 728 q 189 697 186 707 q 193 683 192 688 q 197 676 193 682 q 204 662 200 669 q 212 648 208 654 q 215 640 215 642 q 216 631 215 639 q 217 618 217 622 q 216 608 217 615 q 215 597 215 600 q 178 565 199 578 q 139 538 158 553 q 87 484 110 515 q 48 417 64 453 q 23 344 32 382 q 14 269 14 306 m 144 238 q 144 261 144 243 q 143 285 143 279 q 169 394 143 350 q 247 472 194 439 q 258 477 256 476 q 271 478 261 478 q 283 476 278 478 q 292 467 289 475 q 299 451 293 463 q 310 428 304 440 q 322 405 317 415 q 329 390 326 394 q 352 356 335 379 q 388 308 369 333 q 419 260 406 282 q 432 228 433 238 q 428 217 432 225 q 422 206 425 208 q 369 156 397 176 q 300 135 340 135 q 200 157 239 135 q 144 238 161 179 m 296 803 q 299 834 296 818 q 308 863 301 850 q 328 883 315 875 q 360 892 340 892 q 388 883 376 892 q 408 863 400 875 q 419 835 415 850 q 422 806 422 819 q 416 764 422 789 q 398 716 410 739 q 369 677 386 693 q 332 661 353 661 q 326 662 331 661 q 318 663 321 663 q 299 731 303 693 q 296 803 296 769 z "},"'":{"ha":694,"x_min":163,"x_max":371,"o":"m 210 626 l 210 625 q 207 619 207 625 q 206 615 206 618 q 206 614 206 614 q 207 608 206 610 q 218 591 210 599 q 235 582 226 583 q 242 581 239 581 q 254 583 246 581 q 268 593 261 588 q 279 606 275 599 q 314 657 296 624 q 330 687 322 671 q 344 719 338 703 q 368 796 363 763 q 371 817 371 807 q 371 838 371 828 q 349 922 371 889 q 300 967 326 954 q 269 974 283 974 q 249 972 261 974 q 224 964 236 969 q 181 935 200 954 q 163 882 163 915 q 164 872 163 878 q 167 861 165 867 q 167 860 167 861 q 168 858 167 858 q 169 851 168 854 q 171 846 171 849 q 189 813 176 824 q 215 797 201 801 q 223 797 219 797 q 229 796 226 796 q 240 797 236 796 l 247 797 q 256 799 251 797 q 263 799 261 801 q 273 776 268 779 q 281 776 278 774 q 287 782 285 779 q 289 776 289 785 q 278 735 289 761 q 249 681 267 710 q 230 652 240 667 q 210 626 219 638 z "},"(":{"ha":344,"x_min":14,"x_max":329,"o":"m 14 433 l 85 151 q 93 133 85 150 q 113 94 101 117 q 135 48 124 71 q 154 11 147 25 q 174 -22 163 -4 q 199 -56 185 -40 q 229 -81 213 -71 q 265 -92 246 -92 q 312 -70 294 -92 q 329 -22 329 -49 q 322 10 329 -6 q 303 41 314 26 q 282 69 293 56 q 263 97 271 83 q 229 162 246 128 q 199 228 213 196 q 168 339 179 290 q 144 444 157 388 l 144 667 q 147 681 144 668 q 152 709 149 693 q 159 740 156 725 q 165 764 163 756 q 178 804 169 775 q 198 867 188 833 q 217 929 208 900 q 231 969 226 958 q 273 1048 247 1010 q 317 1126 299 1086 q 317 1136 317 1129 q 318 1146 318 1143 q 306 1187 318 1171 q 267 1203 293 1203 q 222 1183 244 1203 q 176 1131 199 1163 q 134 1060 154 1099 q 98 985 114 1022 q 69 918 82 949 q 51 872 57 888 q 38 819 42 847 q 31 764 33 792 q 25 709 28 736 q 14 656 22 682 l 14 433 z "},")":{"ha":335,"x_min":14,"x_max":318,"o":"m 19 -12 q 33 -61 19 -36 q 74 -86 47 -86 q 108 -74 92 -86 q 140 -46 125 -62 q 165 -10 154 -29 q 182 22 176 8 q 197 58 186 32 q 220 114 208 85 q 243 169 232 143 q 258 207 254 196 q 265 224 261 211 q 269 240 268 238 q 294 355 285 300 q 318 468 304 410 l 318 658 q 301 751 306 707 q 281 843 296 794 q 266 885 276 856 q 243 947 256 914 q 219 1010 231 981 q 204 1050 208 1039 q 181 1094 194 1067 q 153 1149 168 1122 q 119 1194 138 1175 q 79 1213 100 1213 q 35 1197 56 1213 q 14 1154 14 1181 q 28 1115 14 1139 q 60 1063 42 1090 q 97 1009 79 1036 q 122 963 115 982 q 179 764 160 867 q 199 557 199 661 q 163 319 199 436 q 68 99 126 203 q 34 47 49 78 q 19 -12 19 15 z "},",":{"ha":274,"x_min":14,"x_max":258,"o":"m 40 -185 q 60 -220 40 -212 q 103 -228 79 -228 q 172 -197 142 -228 q 220 -122 201 -165 q 249 -31 239 -78 q 258 44 258 15 q 255 79 258 56 q 245 128 251 103 q 229 176 239 154 q 208 204 219 197 q 190 214 201 208 q 169 224 179 219 q 151 233 158 229 q 143 238 143 238 l 106 238 q 97 233 106 238 q 78 224 89 229 q 58 214 68 219 q 40 204 47 208 q 28 190 33 200 q 19 169 22 181 q 15 145 17 157 q 14 126 14 133 q 30 68 14 89 q 65 35 46 47 q 101 13 85 22 q 117 -11 117 4 q 105 -57 117 -36 q 78 -98 93 -78 q 52 -139 64 -118 q 40 -185 40 -160 z "},".":{"ha":236,"x_min":14,"x_max":219,"o":"m 14 106 q 40 30 14 60 q 114 0 65 0 q 192 34 165 0 q 219 117 219 68 q 194 197 219 165 q 118 228 169 228 l 100 228 q 33 183 51 213 q 14 106 14 154 z "},"/":{"ha":797,"x_min":14,"x_max":781,"o":"m 644 1224 q 594 1110 622 1167 q 534 997 565 1053 q 472 887 503 942 q 411 778 440 832 q 305 559 354 671 q 193 343 256 447 q 167 285 178 315 q 139 229 156 256 q 90 151 115 190 q 46 71 65 113 q 33 41 42 60 q 20 9 25 22 q 14 -6 15 -4 l 14 -43 q 23 -55 14 -51 q 43 -59 32 -58 q 64 -60 54 -60 q 76 -60 74 -60 q 116 -56 99 -60 q 144 -32 133 -53 q 208 99 179 32 q 275 229 238 165 q 290 262 285 244 q 307 294 296 279 l 460 593 l 471 610 l 613 886 q 618 894 614 889 q 624 903 622 900 q 638 930 626 908 q 661 976 649 951 q 685 1023 674 1001 q 699 1050 696 1044 q 706 1060 700 1051 q 718 1079 711 1069 q 731 1098 725 1089 q 738 1110 736 1107 q 747 1126 740 1114 q 760 1153 753 1139 q 772 1179 767 1167 q 781 1196 778 1192 l 781 1207 q 771 1231 781 1222 q 747 1244 761 1240 q 717 1250 732 1249 q 690 1251 701 1251 q 644 1224 661 1251 z "},":":{"ha":236,"x_min":14,"x_max":219,"o":"m 14 101 q 40 26 14 56 q 114 -4 65 -4 q 192 30 165 -4 q 219 113 219 64 q 194 192 219 161 q 118 224 169 224 l 100 224 q 33 179 51 208 q 14 101 14 150 m 14 621 q 40 545 14 575 q 114 515 65 515 q 192 549 165 515 q 219 632 219 583 q 194 712 219 681 q 118 743 169 743 l 100 743 q 33 699 51 728 q 14 621 14 669 z "},";":{"ha":274,"x_min":14,"x_max":258,"o":"m 40 -196 q 60 -231 40 -224 q 103 -239 79 -239 q 172 -208 142 -239 q 220 -133 201 -176 q 249 -42 239 -89 q 258 33 258 4 q 255 68 258 44 q 245 117 251 92 q 229 165 239 143 q 208 193 219 186 q 190 203 201 197 q 169 213 179 208 q 151 222 158 218 q 143 226 143 226 l 106 226 q 97 222 106 226 q 78 213 89 218 q 58 203 68 208 q 40 193 47 197 q 28 179 33 189 q 19 158 22 169 q 15 134 17 146 q 14 115 14 122 q 30 57 14 78 q 65 24 46 36 q 101 2 85 11 q 117 -22 117 -7 q 105 -68 117 -47 q 78 -109 93 -89 q 52 -150 64 -129 q 40 -196 40 -171 m 24 585 q 50 509 24 539 q 125 479 76 479 q 203 514 176 479 q 231 596 231 549 q 205 676 231 644 q 129 708 179 708 q 119 708 125 708 q 111 707 113 707 q 43 663 63 692 q 24 585 24 633 z "},"?":{"ha":579,"x_min":14,"x_max":564,"o":"m 192 144 q 199 103 192 125 q 218 61 206 81 q 249 28 231 42 q 289 15 267 15 q 330 26 311 15 q 362 53 349 36 q 382 90 375 69 q 389 132 389 111 q 364 207 389 175 q 293 239 339 239 q 222 213 253 239 q 192 144 192 186 m 219 408 q 222 377 219 393 q 233 347 225 361 q 252 323 240 332 q 282 314 264 314 q 316 327 304 314 q 333 360 328 340 q 340 401 339 379 q 340 439 340 422 q 363 459 344 447 q 403 483 381 471 q 447 507 425 496 q 481 526 469 518 q 519 567 503 540 q 544 623 535 593 q 559 684 554 653 q 564 740 564 715 q 563 761 564 747 q 563 776 563 775 q 559 790 563 778 q 551 817 556 801 q 543 849 547 833 q 536 874 539 864 q 533 880 535 876 q 531 885 531 883 l 443 988 q 413 1003 436 996 q 362 1015 390 1010 q 307 1023 333 1019 q 267 1026 281 1026 q 166 1006 213 1026 q 85 952 119 986 q 33 871 51 918 q 14 769 14 824 q 19 717 14 742 q 38 675 25 693 q 70 646 50 657 q 119 635 90 635 q 188 657 160 635 q 215 724 215 679 q 206 760 215 744 q 185 790 196 776 q 164 817 174 804 q 154 847 154 831 q 154 856 154 853 q 161 863 154 860 q 219 890 192 879 q 283 901 247 901 q 407 851 360 901 q 454 725 454 801 q 442 665 454 697 q 400 618 429 632 l 281 564 q 247 537 260 554 q 228 497 235 519 q 221 452 222 475 q 219 408 219 429 z "},"A":{"ha":846,"x_min":13,"x_max":829,"o":"m 13 75 q 13 87 13 78 q 14 99 14 96 q 39 124 28 115 q 63 137 50 132 q 89 146 75 142 q 122 158 103 150 q 140 174 132 163 q 152 197 147 185 q 160 223 157 210 q 167 246 164 236 q 180 294 171 260 q 199 368 189 329 q 219 442 210 407 q 232 490 228 476 q 249 550 244 521 q 264 610 253 579 q 309 743 286 676 q 351 876 332 810 q 360 911 356 890 q 374 951 365 932 q 396 983 382 969 q 432 996 410 996 q 472 979 457 996 q 497 940 488 963 q 510 892 506 917 q 519 854 515 868 q 542 758 533 807 q 574 664 550 708 l 704 169 q 720 147 708 156 q 747 134 732 139 q 777 126 763 129 q 803 121 792 124 q 829 69 829 104 q 808 19 829 36 q 756 1 788 1 q 683 3 721 1 q 613 7 646 6 q 571 8 590 7 q 536 16 551 10 q 512 36 521 22 q 503 75 503 50 l 503 99 q 526 117 513 111 q 552 129 539 124 q 576 141 565 135 q 590 158 586 147 q 589 170 590 161 q 585 189 588 179 q 582 207 583 199 q 579 218 581 215 q 575 233 578 222 q 567 257 572 244 q 555 279 561 269 q 542 289 549 289 l 324 289 q 310 280 321 289 q 297 268 299 271 l 258 186 q 258 178 258 185 q 257 168 257 171 q 270 136 257 144 q 299 121 283 128 q 327 102 314 114 q 340 61 340 90 q 319 15 340 29 q 267 1 297 1 q 228 4 247 1 q 189 7 210 7 q 135 2 161 7 q 81 -3 108 -3 q 31 22 49 -3 q 13 75 13 46 m 335 414 q 364 403 350 404 q 397 403 378 403 q 452 407 425 403 q 508 414 479 411 l 514 419 q 515 427 514 421 q 515 436 515 433 q 510 474 515 447 q 495 534 504 501 q 475 601 486 567 q 454 665 464 636 q 438 712 444 693 q 429 731 431 731 q 421 724 424 731 q 417 714 418 717 q 405 681 413 703 q 389 638 397 660 q 374 599 381 617 q 367 578 368 582 q 344 504 356 542 q 333 431 333 467 q 334 422 333 428 q 335 414 335 417 z "},"B":{"ha":819,"x_min":14,"x_max":804,"o":"m 14 72 q 33 20 14 42 q 85 -1 53 -1 l 101 -1 q 191 -1 128 -1 q 329 0 254 0 q 467 1 404 0 q 558 1 531 1 q 631 25 597 8 q 700 61 665 42 q 744 114 725 83 q 777 179 764 144 q 797 249 790 214 q 804 317 804 285 q 793 395 804 361 q 760 469 782 429 q 744 486 754 478 q 725 504 735 494 q 708 523 715 514 q 700 540 700 532 q 715 576 700 556 q 738 606 731 597 q 763 664 754 631 q 771 728 771 697 q 752 837 771 790 q 699 915 733 883 q 615 967 664 947 q 504 997 565 988 l 476 997 q 361 989 418 997 q 246 981 304 981 l 161 981 q 119 990 136 988 q 81 992 103 992 q 32 973 50 992 q 14 924 14 954 q 41 867 14 885 q 104 850 68 850 q 137 853 121 850 q 169 856 153 856 l 179 856 q 203 851 190 856 q 215 839 215 847 l 215 138 l 210 132 q 199 131 208 132 q 186 131 190 131 q 138 134 161 131 q 90 138 114 138 l 57 138 q 14 72 14 119 m 361 469 q 378 467 371 469 q 396 464 386 464 q 411 465 406 464 q 428 475 417 467 l 585 475 q 598 469 588 475 q 613 458 608 463 l 678 393 q 690 356 690 379 q 689 314 689 332 q 684 250 689 278 q 665 201 679 222 q 628 163 651 179 q 569 132 606 146 q 474 126 521 131 q 381 121 428 121 q 356 126 372 121 q 340 143 340 131 l 340 453 q 347 461 340 456 q 357 469 353 467 l 361 469 m 340 856 l 514 856 q 559 847 542 849 q 590 840 576 844 q 616 823 604 835 q 644 785 628 811 q 650 774 650 779 l 650 682 q 642 656 650 668 q 624 633 635 643 q 601 614 613 622 q 579 600 589 606 q 493 596 542 597 q 400 594 444 594 l 383 594 q 355 598 369 594 q 340 617 340 601 l 340 856 z "},"C":{"ha":678,"x_min":14,"x_max":661,"o":"m 101 138 q 222 29 146 63 q 382 -4 299 -4 q 488 26 438 -4 q 576 103 538 57 q 638 206 615 150 q 661 314 661 263 q 660 343 661 328 q 654 371 660 358 q 638 391 649 383 q 610 399 628 399 q 564 371 581 399 q 534 290 550 332 q 494 212 518 247 q 436 153 471 176 q 351 131 401 131 q 335 131 346 131 q 324 132 325 132 q 247 170 278 143 q 196 233 215 197 q 166 310 176 268 q 150 393 156 351 q 147 407 149 396 q 144 421 146 418 l 144 594 q 154 670 144 632 q 182 744 164 708 q 225 810 200 779 q 281 861 250 840 q 287 865 283 863 q 292 867 290 867 l 383 867 q 391 865 385 867 q 400 861 397 863 q 449 833 429 847 q 481 802 468 819 q 503 763 494 785 q 519 708 511 740 q 526 673 524 696 q 534 628 528 650 q 553 589 540 606 q 588 572 565 572 q 612 582 600 572 q 632 606 624 592 q 645 634 640 619 q 650 660 650 649 l 650 828 q 648 844 650 832 q 644 861 646 857 l 644 864 q 648 894 644 879 q 651 924 651 908 q 649 952 651 938 q 641 979 647 967 q 624 1000 635 992 q 596 1008 613 1008 q 568 999 579 1008 q 549 978 557 989 q 535 957 542 967 q 519 947 528 947 l 514 947 q 425 992 465 975 q 332 1008 385 1008 q 301 1009 318 1008 q 269 1003 285 1010 q 251 994 264 1000 q 226 981 239 988 q 200 967 213 974 q 182 958 188 961 q 157 933 172 950 q 126 896 142 915 q 99 858 111 876 q 85 828 88 839 l 25 632 q 21 594 24 615 q 14 556 18 574 l 14 410 q 25 339 24 374 q 42 268 26 304 q 53 242 44 260 q 70 203 61 224 q 88 163 79 182 q 101 138 97 144 z "},"D":{"ha":840,"x_min":14,"x_max":825,"o":"m 14 94 q 26 50 14 68 q 56 21 38 32 q 98 5 75 10 q 143 0 121 0 l 167 0 q 181 3 169 0 q 206 8 193 6 q 232 14 219 11 q 247 17 244 17 q 265 17 251 17 q 297 19 279 18 q 331 21 314 19 q 357 22 349 22 q 453 24 411 24 q 534 33 496 25 q 609 58 572 40 q 688 108 646 75 q 708 127 693 113 q 726 147 722 142 q 803 357 781 249 q 825 581 825 465 q 813 685 825 628 q 778 795 801 742 q 718 892 754 849 q 633 957 682 936 q 552 981 593 974 q 471 1006 511 989 l 281 1006 q 240 999 263 999 q 201 1000 218 1000 q 149 1003 174 1000 q 99 1006 125 1006 q 38 989 61 1006 q 14 932 14 972 q 33 881 14 903 q 85 858 53 858 l 199 858 q 210 853 204 858 q 215 847 215 853 l 213 614 l 213 588 l 213 343 l 213 315 l 215 163 l 204 153 q 196 151 204 151 q 182 151 188 151 q 138 155 158 151 q 93 158 117 158 q 36 147 58 158 q 14 94 14 135 m 340 174 l 343 608 l 344 636 l 344 853 l 351 864 q 361 865 351 864 q 376 865 371 865 q 527 849 465 865 q 628 797 589 833 q 686 701 668 761 q 704 551 704 640 q 701 450 704 507 q 683 338 697 393 q 640 238 668 283 q 563 174 611 193 q 478 155 524 158 q 392 151 433 151 q 379 153 388 151 q 363 157 371 154 q 347 164 354 160 q 340 174 340 168 z "},"E":{"ha":851,"x_min":14,"x_max":835,"o":"m 24 63 q 32 26 24 39 q 55 8 40 14 q 88 1 69 1 q 125 0 106 0 q 164 -1 142 0 q 204 6 186 -1 l 667 6 q 694 0 682 0 q 724 0 708 0 q 804 28 774 0 q 835 107 835 56 q 834 133 835 122 q 826 158 833 143 l 826 349 q 808 402 826 375 q 761 429 790 429 q 721 411 738 429 q 704 369 704 393 l 704 233 q 700 220 704 229 q 693 207 696 211 q 656 163 675 174 q 613 151 636 153 q 563 151 590 150 q 503 142 536 151 l 363 142 l 351 153 l 351 457 q 353 461 351 457 q 357 468 354 465 q 363 474 357 474 l 422 474 q 442 463 431 474 q 466 440 454 453 q 486 413 478 426 q 497 392 494 399 q 497 349 497 375 q 503 298 497 322 q 522 256 508 274 q 564 239 536 239 q 607 283 607 239 l 607 739 q 593 778 607 763 q 557 794 579 794 q 519 776 529 794 q 507 733 510 758 q 503 683 504 708 q 492 642 501 657 q 462 617 481 624 q 428 599 443 610 l 357 599 l 351 604 q 350 611 351 604 q 347 627 349 618 q 343 647 344 636 q 340 664 342 657 l 340 665 l 340 668 q 343 685 340 671 q 346 701 346 699 q 347 732 346 710 q 349 779 347 754 q 351 827 350 804 q 351 858 351 850 l 357 864 l 622 864 q 649 849 633 864 q 672 826 665 835 q 687 801 678 818 q 696 783 696 785 l 696 636 q 715 600 696 614 q 753 586 733 586 q 794 601 776 586 q 813 642 813 617 l 813 935 q 799 979 813 956 q 764 1006 785 1003 q 426 1008 594 1004 q 89 1011 258 1011 q 33 988 53 1011 q 14 932 14 965 q 38 875 14 892 q 99 858 61 858 q 144 862 122 858 q 189 865 165 865 q 204 865 194 865 q 215 864 214 865 l 226 854 l 226 819 q 227 780 226 803 q 221 739 228 757 l 224 549 l 224 522 l 226 196 q 222 173 226 188 q 210 153 218 158 q 192 151 203 153 q 168 147 181 149 q 144 143 156 144 q 125 142 132 142 l 122 142 q 106 144 119 142 q 90 147 93 146 l 82 147 q 53 140 64 147 q 35 119 42 132 q 26 92 29 107 q 24 63 24 76 z "},"F":{"ha":825,"x_min":14,"x_max":808,"o":"m 14 79 q 17 58 14 69 q 27 35 21 46 q 42 17 33 25 q 63 10 51 10 l 400 10 q 414 13 403 11 q 428 15 425 15 q 448 17 433 15 q 479 19 463 18 q 510 20 496 19 q 531 21 525 21 q 575 81 575 32 q 565 111 575 99 q 539 131 554 124 q 506 142 524 139 q 474 146 488 146 q 438 143 456 146 q 403 140 421 140 q 377 142 390 140 q 357 157 364 144 q 351 253 356 207 q 346 350 346 300 l 346 413 q 363 440 349 431 l 392 440 q 449 428 428 440 q 482 379 469 415 q 483 356 482 372 q 484 322 483 340 q 486 288 485 304 q 488 265 488 271 q 505 224 490 242 q 544 206 519 206 q 578 217 567 206 q 596 244 590 228 q 602 280 601 261 q 603 314 603 299 q 603 350 603 331 q 593 385 603 369 l 593 707 q 574 742 593 728 q 536 756 556 756 q 501 740 513 756 q 486 704 490 725 q 482 661 482 683 q 482 625 482 639 q 475 608 479 618 q 464 588 471 597 q 449 572 457 578 q 433 565 442 565 l 363 565 q 355 573 358 565 q 349 590 351 581 q 347 610 347 600 q 346 626 346 621 q 349 663 346 646 q 351 699 351 679 q 348 758 351 729 q 344 818 344 786 q 345 841 344 825 q 346 858 346 857 l 351 864 q 444 870 400 865 q 536 875 489 875 q 612 868 579 875 q 672 826 644 861 q 684 808 676 821 q 692 793 692 796 l 692 592 q 711 563 692 578 q 746 549 731 549 q 770 558 758 549 q 790 581 782 567 q 803 609 799 594 q 808 636 808 624 l 808 935 q 786 983 808 961 q 738 1006 764 1006 l 406 1003 l 379 1003 l 221 1000 q 159 1010 190 1010 q 96 1011 128 1011 q 40 984 61 1011 q 18 925 18 957 q 37 876 18 893 q 88 858 56 858 q 133 862 111 858 q 179 865 154 865 q 200 865 186 865 q 215 864 214 864 l 221 858 l 232 804 l 232 385 q 228 367 229 374 q 226 350 226 360 q 228 333 226 339 q 232 314 229 326 l 232 146 l 226 140 q 215 140 225 140 q 197 139 204 139 q 148 142 172 139 q 99 146 124 146 q 39 132 64 146 q 14 79 14 118 z "},"G":{"ha":786,"x_min":14,"x_max":769,"o":"m 14 408 q 27 332 24 371 q 42 256 31 293 q 80 163 53 208 q 144 81 107 117 q 228 22 182 44 q 326 0 275 0 q 356 -1 343 0 q 383 6 368 -1 q 408 19 396 10 q 435 37 421 28 q 462 53 449 46 q 488 60 475 60 q 501 51 496 60 q 514 33 507 43 q 531 14 521 22 q 560 6 542 6 q 610 32 592 6 q 628 89 628 58 q 625 122 628 106 q 622 156 622 138 q 622 183 622 171 q 628 213 622 197 l 628 369 q 630 383 628 372 q 639 397 632 394 q 680 399 657 397 q 723 406 703 400 q 756 427 743 413 q 769 468 769 442 q 762 499 769 488 q 742 517 754 511 q 713 526 729 524 q 681 528 697 528 q 642 525 661 528 q 604 522 624 522 q 515 531 560 522 q 426 539 471 539 q 386 517 400 539 q 372 471 372 494 q 383 434 372 447 q 412 413 394 421 q 449 402 429 406 q 488 397 469 399 l 497 386 q 499 372 499 385 q 499 356 499 361 q 487 279 499 318 q 453 210 475 240 q 399 160 431 179 q 326 140 367 140 q 253 167 286 140 q 196 231 219 193 q 158 312 172 269 q 144 386 144 354 l 144 653 q 153 673 150 665 q 157 688 156 681 q 160 704 158 694 q 167 729 161 714 q 223 833 186 790 q 326 876 260 876 q 416 858 383 876 q 466 810 449 839 q 490 748 483 781 q 504 686 497 715 q 523 638 511 657 q 563 619 535 619 q 607 645 593 619 q 626 705 621 671 q 633 772 632 739 q 639 821 635 806 l 639 974 q 626 1007 639 996 q 593 1018 614 1018 q 556 1007 568 1018 q 535 982 543 996 q 522 957 528 968 q 506 946 517 946 q 475 960 488 946 q 449 983 463 975 q 388 1015 422 1001 q 321 1028 353 1028 q 218 995 267 1028 q 131 915 169 963 q 68 810 93 867 q 36 707 43 754 q 26 631 29 669 q 14 554 24 592 l 14 408 z "},"H":{"ha":851,"x_min":14,"x_max":835,"o":"m 14 79 q 17 97 14 85 q 25 122 19 110 q 38 144 31 135 q 51 153 44 153 l 133 153 q 142 156 136 153 q 150 163 147 160 q 150 446 149 306 q 156 729 151 586 q 161 771 161 746 l 161 814 l 161 849 l 144 864 q 128 865 140 864 q 103 867 117 865 q 78 869 90 868 q 63 869 67 869 q 39 879 47 871 q 26 899 31 888 q 21 924 22 911 q 19 950 19 938 q 33 995 19 974 q 74 1017 47 1017 l 329 1017 q 376 993 357 1017 q 394 944 394 969 q 385 903 394 918 q 362 879 376 888 q 327 868 347 871 q 286 864 307 865 q 279 856 283 861 q 275 849 275 851 l 275 619 q 283 609 275 610 q 296 608 290 608 q 322 612 310 608 q 349 615 335 615 q 377 612 364 615 q 406 608 390 608 q 432 612 419 608 q 458 615 444 615 q 483 606 474 615 q 506 597 492 597 q 547 609 532 597 q 567 639 561 621 q 573 679 572 657 q 574 724 574 701 l 574 792 l 574 858 q 551 867 572 865 q 507 876 531 869 q 463 899 483 883 q 443 950 443 915 q 453 986 443 972 q 478 1006 463 1000 q 512 1015 493 1013 q 549 1017 531 1017 q 590 1014 571 1017 q 631 1011 610 1011 q 667 1014 650 1011 q 701 1017 683 1017 q 746 1013 722 1017 q 790 998 769 1008 q 822 970 810 988 q 835 926 835 953 q 806 876 835 889 q 744 864 778 864 l 704 864 l 696 858 l 696 278 q 688 254 689 264 q 688 231 688 244 q 690 192 688 217 q 704 163 692 168 q 745 160 722 163 q 788 151 768 158 q 821 129 807 143 q 835 90 835 115 q 829 62 835 76 q 815 35 824 47 q 792 16 806 24 q 764 8 779 8 l 574 8 q 560 4 571 7 q 547 0 550 1 l 544 0 q 475 23 507 0 q 443 85 443 46 q 452 120 443 107 q 476 140 461 133 q 509 149 490 147 q 547 153 528 151 l 563 168 l 574 222 l 574 446 q 564 462 574 453 q 553 474 554 471 q 443 479 494 474 q 338 485 392 485 q 315 484 332 485 q 292 483 297 483 q 280 472 285 481 q 275 457 275 464 l 275 163 l 286 153 q 325 150 306 153 q 360 140 344 147 q 386 117 376 132 q 396 79 396 103 q 377 32 396 50 q 329 11 358 14 q 227 3 281 7 q 125 0 174 0 q 84 2 104 0 q 48 13 64 4 q 23 36 32 21 q 14 79 14 51 z "},"I":{"ha":628,"x_min":14,"x_max":613,"o":"m 14 69 q 23 31 14 46 q 47 6 32 15 q 81 -6 63 -3 q 119 -10 100 -10 q 179 -7 151 -10 q 239 -4 207 -4 q 280 -3 254 -4 q 324 -10 306 -3 l 514 -10 q 581 12 550 -10 q 613 74 613 33 q 605 99 613 86 q 586 120 597 111 q 561 135 575 129 q 535 140 547 140 l 400 140 l 383 158 l 383 522 q 388 546 388 536 q 389 568 389 556 q 388 591 389 582 q 383 615 388 600 l 383 849 l 389 854 l 417 854 q 467 851 443 854 q 517 847 490 847 q 577 859 553 847 q 601 911 601 871 q 574 968 601 954 q 510 985 547 982 q 433 986 472 988 q 372 997 394 985 l 150 997 q 128 1005 136 1004 q 110 1006 121 1006 q 78 1001 94 1006 q 48 986 61 996 q 26 963 35 976 q 18 932 18 949 q 26 901 18 917 q 47 874 35 886 q 75 853 60 861 q 106 846 90 846 l 253 846 l 258 838 q 259 830 258 836 q 260 821 260 824 q 258 797 260 807 q 250 772 257 786 l 250 158 q 240 151 250 154 q 219 145 231 147 q 197 142 208 143 q 185 142 186 142 q 147 145 165 142 q 108 149 128 149 q 43 129 72 149 q 14 69 14 110 z "},"J":{"ha":781,"x_min":14,"x_max":764,"o":"m 14 204 q 35 108 14 150 q 92 37 57 65 q 175 -6 128 8 q 272 -21 222 -21 q 389 6 344 -21 q 460 77 433 33 q 502 176 488 121 q 531 289 517 232 l 528 610 l 528 638 l 525 843 l 536 854 q 548 855 536 854 q 567 856 560 856 q 617 852 593 856 q 669 849 642 849 q 721 856 697 849 q 764 888 744 863 l 764 911 q 738 969 764 951 q 676 996 713 988 l 617 996 q 575 997 601 996 q 531 990 549 997 l 297 990 q 270 995 281 994 q 244 996 260 996 q 178 976 208 996 q 149 917 149 957 q 182 854 149 879 q 210 844 199 847 q 233 840 222 842 q 254 838 243 838 q 281 838 265 838 q 326 841 304 838 q 371 844 347 844 q 382 844 375 844 q 389 843 389 843 l 400 832 l 400 803 q 401 766 400 786 q 394 729 401 746 l 397 572 l 397 544 l 400 343 q 397 330 399 340 q 394 317 394 319 q 393 296 394 311 q 391 264 392 281 q 390 233 390 247 q 389 213 389 218 q 378 188 386 204 q 357 158 369 172 q 331 132 344 143 q 307 121 318 121 l 199 121 q 184 129 192 121 q 176 144 176 138 l 176 147 q 180 158 178 150 q 182 169 182 167 q 206 192 196 182 q 224 212 217 201 q 234 234 231 222 q 238 264 238 246 q 229 306 238 283 q 206 346 221 328 q 172 376 192 364 q 131 388 153 388 q 113 385 124 388 q 96 376 101 382 q 35 300 56 340 q 14 204 14 260 z "},"K":{"ha":851,"x_min":14,"x_max":836,"o":"m 19 67 q 34 17 19 39 q 79 -4 49 -4 q 163 1 122 -4 q 244 7 204 7 q 283 4 264 7 q 321 1 301 1 q 382 20 353 1 q 411 75 411 39 q 399 110 411 92 q 367 129 388 129 l 269 129 l 258 143 q 257 156 258 143 q 253 188 256 169 q 250 225 251 206 q 247 257 249 244 l 247 293 q 249 342 247 317 q 258 388 250 367 q 278 414 263 396 q 311 451 293 432 q 344 483 329 469 q 363 496 360 497 q 379 476 368 493 q 405 433 390 458 q 436 376 419 407 q 467 317 453 346 q 494 267 482 289 q 514 235 507 244 q 517 230 515 233 q 519 224 519 226 q 533 192 525 211 q 542 156 542 174 q 527 134 542 139 q 495 126 513 129 q 463 115 478 124 q 449 82 449 107 q 459 42 449 57 q 486 17 469 26 q 524 5 503 8 q 565 1 544 1 q 610 4 589 1 q 653 7 631 7 q 696 4 675 7 q 740 1 717 1 q 810 17 785 1 q 836 82 836 32 q 822 115 836 103 q 787 133 807 126 q 745 140 767 139 q 710 143 724 142 l 682 169 q 617 297 650 233 q 547 419 585 360 q 512 490 528 449 q 482 556 496 531 q 473 567 481 558 q 465 578 465 575 q 465 584 465 578 q 464 593 464 590 q 479 630 464 608 q 515 673 494 651 q 558 714 536 694 q 590 746 579 733 q 634 803 615 774 q 682 854 653 832 q 726 857 703 856 q 767 865 749 858 q 797 885 785 871 q 808 926 808 900 q 788 982 808 967 q 729 997 768 997 q 685 994 706 997 q 642 990 665 990 q 595 994 618 990 q 549 997 572 997 q 517 996 533 997 q 489 988 501 994 q 468 970 476 982 q 460 939 460 958 q 467 903 460 918 q 485 878 475 888 q 502 861 494 868 q 510 850 510 854 q 504 826 510 840 q 492 806 499 813 l 394 708 q 369 665 388 685 q 335 626 350 644 q 320 610 329 619 q 303 593 311 601 q 288 578 294 585 q 281 572 281 572 l 258 572 l 247 604 l 247 763 q 255 801 253 781 q 258 839 257 821 q 260 842 258 840 q 264 844 263 843 q 271 845 265 844 q 283 847 276 846 q 294 849 289 847 q 301 850 300 850 q 317 852 306 850 q 340 857 328 854 q 363 862 353 860 q 378 865 374 864 q 399 888 393 876 q 406 918 406 900 q 379 969 406 951 q 321 986 353 986 q 276 983 297 986 q 231 979 254 979 q 167 988 197 979 q 106 997 138 997 q 41 980 68 997 q 14 919 14 963 q 28 874 14 883 q 60 863 42 864 q 98 860 79 861 q 128 844 117 860 q 133 774 132 801 q 133 707 133 746 q 133 674 133 690 q 125 643 133 658 l 125 138 l 117 132 q 81 130 99 132 q 50 121 64 128 q 28 101 36 114 q 19 67 19 89 z "},"L":{"ha":829,"x_min":14,"x_max":813,"o":"m 279 17 q 336 8 308 17 q 392 0 364 0 l 394 0 q 408 4 397 1 q 421 8 418 7 l 742 8 q 770 19 757 8 q 792 44 783 29 q 807 77 801 60 q 813 107 813 94 q 812 126 813 118 q 804 147 811 133 l 804 392 q 790 438 804 418 q 750 457 775 457 q 708 437 721 457 q 690 386 694 417 q 684 319 685 356 q 678 251 683 283 q 662 194 674 218 q 622 163 650 169 q 599 162 615 163 q 565 160 583 161 q 531 158 547 160 q 508 157 514 157 q 482 148 493 156 q 457 140 471 140 q 449 141 450 140 q 445 143 447 142 q 440 147 443 144 q 426 153 436 149 q 411 156 422 154 q 389 158 400 157 q 369 162 378 160 q 361 168 361 164 l 361 707 q 365 720 363 710 q 367 733 367 731 q 368 757 367 740 q 370 793 369 774 q 372 829 371 813 q 372 853 372 846 l 378 858 l 536 858 q 576 876 561 858 q 590 917 590 893 q 578 957 590 942 q 549 981 567 972 q 509 992 531 989 q 468 994 488 994 q 424 992 444 994 q 381 989 403 989 q 340 992 360 989 q 299 994 321 994 q 256 992 276 994 q 213 989 235 989 q 157 994 185 989 q 101 1000 129 1000 q 40 982 67 1000 q 14 926 14 964 q 30 879 14 903 q 74 856 46 856 l 221 856 l 236 836 q 238 818 238 836 q 238 792 238 801 q 238 746 238 778 q 231 696 238 715 l 231 278 q 238 243 238 261 q 238 210 238 225 q 237 189 238 204 q 236 168 236 174 q 217 149 229 157 q 192 140 204 140 q 146 149 168 140 q 100 158 124 158 q 42 140 64 158 q 19 85 19 122 q 45 27 19 49 q 107 6 71 6 q 194 11 151 6 q 279 17 236 17 z "},"M":{"ha":846,"x_min":13,"x_max":831,"o":"m 13 79 q 28 122 13 111 q 62 138 43 133 q 96 146 81 142 q 111 168 111 150 l 108 304 l 108 332 q 108 361 108 340 q 107 406 107 382 l 107 449 l 107 478 q 108 493 107 481 q 109 519 108 506 q 110 544 110 532 q 111 560 111 557 q 112 578 111 561 q 113 618 113 596 l 113 664 l 113 701 l 113 729 l 113 771 q 112 815 113 794 q 111 843 111 835 q 90 860 106 857 q 56 867 74 863 q 26 883 39 871 q 13 926 13 894 q 27 972 13 950 q 68 994 42 994 l 226 994 q 263 983 243 994 q 292 957 282 972 q 321 865 315 917 q 335 767 326 814 q 357 620 349 692 q 378 474 365 549 q 385 430 381 457 q 396 376 390 403 q 406 331 401 350 q 411 310 410 311 l 422 283 q 437 330 428 285 q 456 443 446 375 q 478 592 467 511 q 500 746 490 672 q 520 875 511 821 q 536 946 529 929 q 556 980 543 963 q 590 994 569 997 q 619 995 597 994 q 647 996 640 996 q 680 995 658 996 q 704 994 701 994 q 744 990 725 993 q 780 978 764 986 q 805 957 796 971 q 814 921 814 943 q 813 909 814 918 q 813 897 813 900 q 776 869 796 874 q 732 853 757 864 q 728 851 729 853 q 726 849 726 849 l 726 310 q 729 297 728 307 q 732 283 731 286 q 733 260 732 276 q 735 226 733 244 q 737 191 736 207 q 738 168 738 175 q 753 160 739 161 q 785 154 768 160 q 817 133 803 149 q 831 81 831 118 q 822 43 831 57 q 799 22 813 29 q 766 12 785 14 q 729 10 747 10 q 685 13 706 10 q 642 17 664 17 q 609 14 625 17 q 576 11 593 11 q 547 16 560 11 q 524 27 533 21 q 508 39 514 33 q 497 44 501 44 q 495 44 497 44 q 492 43 493 43 q 463 11 476 22 q 425 0 449 0 q 397 8 408 0 q 378 25 386 15 q 365 42 371 35 q 351 50 360 50 q 348 49 350 50 q 346 49 346 49 q 335 38 342 44 q 322 25 329 32 q 306 13 314 18 q 292 8 297 8 l 133 8 q 110 1 119 1 q 88 0 101 0 q 31 21 50 0 q 13 79 13 42 m 613 767 q 601 724 610 767 q 581 615 593 681 q 556 471 569 550 q 532 319 543 392 q 514 192 521 247 q 507 118 507 136 q 531 122 514 118 q 567 131 549 125 q 599 146 585 138 q 613 163 613 154 l 613 338 q 606 381 606 358 l 606 421 l 606 463 q 613 506 606 485 l 613 767 m 226 733 l 226 168 q 238 151 226 160 q 253 142 250 142 l 324 125 q 329 132 329 124 l 329 140 q 319 226 329 183 q 301 310 310 268 q 283 426 290 368 q 264 543 275 485 q 245 633 257 583 q 232 728 233 683 l 226 733 z "},"N":{"ha":851,"x_min":14,"x_max":836,"o":"m 503 233 l 557 60 q 588 18 564 36 q 636 0 611 0 q 687 21 664 0 q 710 71 710 42 l 707 522 l 707 549 l 704 858 l 710 864 q 742 864 724 864 q 777 866 760 864 q 810 875 794 868 q 835 897 825 882 q 835 910 835 900 q 836 922 836 919 q 803 987 836 967 q 728 1007 769 1007 q 705 1006 714 1007 q 682 997 696 1004 l 471 997 q 439 983 451 997 q 426 951 426 968 q 440 906 426 922 q 476 880 454 889 q 522 868 497 871 q 568 864 547 865 l 582 854 l 582 463 q 588 449 585 460 q 590 435 590 438 q 590 411 590 428 q 590 376 590 394 q 588 342 589 358 q 588 318 588 325 q 586 315 586 318 q 585 315 586 314 q 579 323 583 317 q 574 332 575 329 q 516 464 543 394 q 465 593 489 533 q 463 600 465 594 q 460 612 461 606 q 456 624 458 618 q 454 631 454 629 q 444 651 453 635 q 427 688 436 668 q 410 724 418 707 q 400 744 401 740 q 388 778 397 751 q 367 835 378 804 q 347 891 357 865 q 335 924 338 917 q 306 971 326 947 q 258 994 286 994 l 101 994 q 46 974 68 994 q 24 922 24 953 q 25 905 24 915 q 30 885 26 894 q 40 870 33 876 q 57 864 46 864 l 156 864 l 167 854 q 172 570 167 711 q 178 288 178 429 q 174 231 178 258 q 172 174 169 204 l 161 163 q 142 162 156 163 q 115 160 129 161 q 87 159 100 160 q 68 158 74 158 q 31 131 43 156 q 14 88 19 107 l 14 74 q 30 34 14 50 q 68 11 46 18 q 97 10 76 11 q 139 8 117 8 q 181 6 161 7 q 210 6 201 6 l 231 6 q 331 13 283 6 q 432 17 378 19 q 468 45 460 24 q 476 89 476 67 l 476 108 l 454 131 q 445 135 453 132 q 427 141 438 138 q 406 148 417 144 q 389 153 394 151 l 375 153 q 353 147 363 153 q 332 140 344 140 q 307 151 322 140 q 292 174 292 163 l 292 315 q 297 343 297 331 q 297 372 297 357 q 297 400 297 388 q 292 429 297 414 l 292 707 l 297 707 q 313 671 297 707 q 352 585 329 635 q 399 481 375 535 q 438 392 422 426 q 469 311 456 351 q 503 233 482 271 z "},"O":{"ha":754,"x_min":14,"x_max":738,"o":"m 365 1040 q 243 1012 296 1040 q 151 938 190 983 q 86 834 113 892 q 42 718 60 776 q 34 691 39 708 q 25 656 29 674 q 17 625 21 639 q 14 610 14 611 l 14 386 q 16 376 14 385 q 20 358 18 368 q 25 337 22 347 q 31 321 28 326 q 54 260 39 294 q 90 190 69 225 q 133 124 110 154 q 182 76 157 93 q 197 68 185 74 q 221 56 208 63 q 244 44 233 50 q 258 38 256 39 q 315 11 289 22 q 376 0 340 0 q 410 3 397 0 q 433 13 422 7 q 454 24 443 18 q 482 38 465 31 q 606 122 557 67 q 685 245 656 176 q 726 391 714 314 q 738 542 738 468 q 718 688 738 617 q 667 828 699 758 q 632 874 646 849 q 601 925 618 900 q 578 946 593 938 q 553 963 564 954 q 508 995 529 981 q 464 1019 486 1010 q 418 1035 442 1029 q 365 1040 394 1040 m 133 522 q 148 635 133 568 q 192 763 163 701 q 265 867 221 824 q 371 910 310 910 q 433 891 410 910 q 488 849 457 872 q 539 797 519 824 q 571 740 558 769 q 591 678 583 711 q 607 610 599 646 l 607 431 q 599 393 607 407 q 585 360 592 379 q 565 301 578 335 q 533 237 553 267 q 488 185 514 207 q 428 164 461 164 l 292 164 q 257 182 276 164 q 219 224 238 200 q 185 272 200 247 q 167 310 171 297 q 142 415 150 360 q 133 522 133 469 z "},"P":{"ha":803,"x_min":14,"x_max":786,"o":"m 14 85 q 40 23 14 46 q 104 0 67 0 q 159 8 132 0 q 210 28 186 15 l 378 28 q 419 18 403 21 q 458 15 436 15 q 505 28 482 15 q 542 60 528 40 l 542 85 q 538 108 542 94 q 528 133 535 122 q 511 153 521 144 q 488 161 501 161 l 346 161 q 344 164 346 161 q 340 168 342 167 l 335 179 l 335 315 q 341 351 339 332 q 346 386 343 369 l 351 392 l 553 392 q 628 417 588 392 q 704 479 669 442 q 763 559 739 517 q 786 636 786 601 l 786 750 q 776 791 786 764 q 753 847 767 818 q 723 901 739 876 q 694 936 707 925 q 643 969 671 956 q 585 990 615 983 q 565 994 578 992 q 541 999 553 997 q 519 1003 529 1001 q 508 1006 510 1006 l 275 1006 q 253 1001 261 1003 q 235 1000 246 1000 q 185 1003 208 1000 q 133 1007 161 1007 q 122 1007 131 1007 q 104 1007 114 1007 q 86 1006 94 1007 q 74 1006 78 1006 q 51 998 60 1006 q 35 980 42 990 q 26 956 29 969 q 24 933 24 943 q 41 881 24 901 q 93 860 58 860 q 130 863 113 860 q 167 865 147 865 l 199 865 q 213 854 208 864 q 221 838 218 844 l 221 792 q 216 679 221 733 q 210 565 211 625 l 210 174 l 199 161 l 57 161 q 35 153 43 161 q 22 133 26 144 q 15 108 17 121 q 14 85 14 94 m 343 528 l 343 729 q 333 775 332 747 q 333 818 333 803 q 334 841 333 825 q 335 860 335 857 l 340 865 l 386 865 q 480 863 431 865 q 571 844 529 860 q 640 797 613 829 q 667 704 667 764 q 644 606 667 642 q 584 551 621 569 q 499 526 547 532 q 401 521 451 521 q 373 522 392 521 q 351 522 354 522 l 343 528 z "},"Q":{"ha":775,"x_min":14,"x_max":760,"o":"m 400 -32 q 413 -118 401 -74 q 445 -199 424 -162 q 502 -259 467 -236 q 588 -282 538 -282 q 672 -255 639 -282 q 725 -187 706 -228 q 752 -100 744 -147 q 760 -12 760 -53 q 759 16 760 -6 q 758 44 758 38 q 744 87 756 64 q 708 110 732 110 q 665 91 679 110 q 647 44 651 72 q 641 -15 642 17 q 636 -75 640 -47 q 620 -122 632 -103 q 582 -140 608 -140 q 551 -122 563 -140 q 534 -80 540 -104 q 526 -31 528 -56 q 525 7 525 -6 q 526 27 525 21 q 531 36 528 33 q 540 42 533 39 q 557 56 546 46 q 567 64 560 57 q 583 78 575 71 q 597 94 590 86 q 607 104 604 101 q 674 257 653 179 q 715 419 696 335 l 715 588 q 702 653 707 621 q 688 718 697 685 q 678 738 685 729 q 667 756 671 746 q 618 853 646 803 q 546 936 590 904 q 533 943 543 938 q 512 955 524 949 q 490 967 500 961 q 476 974 479 972 q 420 998 449 989 q 358 1007 392 1007 q 244 981 296 1007 q 153 911 193 954 q 86 815 114 868 q 42 707 58 761 q 34 678 39 697 q 25 638 29 658 q 17 599 21 617 q 14 576 14 582 l 14 386 l 51 224 q 56 213 51 222 q 67 192 61 204 q 80 168 74 181 q 90 147 86 156 q 144 75 111 107 q 218 21 178 43 q 303 -14 258 -1 q 394 -26 349 -26 l 400 -32 m 231 183 q 237 198 231 189 q 252 215 243 207 q 270 229 261 224 q 286 235 279 235 l 346 235 q 362 220 347 235 q 383 196 376 206 q 397 169 393 185 q 400 139 400 153 q 385 113 400 118 q 353 108 369 108 q 318 113 339 108 q 278 128 297 118 q 244 151 258 138 q 231 183 231 165 m 333 349 q 267 338 301 349 q 204 311 232 328 q 190 299 201 308 q 176 289 179 290 q 174 288 176 289 q 171 288 172 288 l 167 289 q 143 335 153 308 q 133 386 133 363 l 133 588 q 154 673 144 633 q 181 747 164 713 q 224 809 197 781 q 296 860 251 838 q 305 863 299 861 q 313 865 311 865 l 417 865 q 458 847 435 865 q 503 801 482 828 q 542 749 525 775 q 563 707 558 722 l 596 588 l 596 431 q 567 313 581 368 q 519 201 554 258 q 515 196 518 200 q 508 190 511 192 l 506 190 l 503 190 q 490 224 493 206 q 476 256 486 242 q 415 320 450 292 q 333 349 381 349 z "},"R":{"ha":851,"x_min":14,"x_max":836,"o":"m 585 71 q 612 24 590 38 q 661 6 633 10 q 719 3 689 3 q 775 0 750 4 l 778 0 q 821 22 806 0 q 836 68 836 44 q 833 93 836 86 q 818 119 831 100 q 794 143 808 136 q 767 154 781 150 q 739 164 753 158 q 715 185 725 169 q 703 228 704 201 q 699 272 703 256 q 672 372 688 318 q 628 468 656 425 l 628 481 q 636 509 628 497 q 657 531 644 521 q 683 550 669 540 q 704 571 696 560 q 736 647 729 603 q 743 729 743 690 q 707 874 743 819 q 613 958 671 929 q 481 997 554 988 q 336 1007 408 1007 q 308 1006 321 1007 q 281 997 296 1006 l 68 997 q 31 976 42 997 q 19 932 19 954 q 24 899 19 918 q 46 875 28 881 l 133 854 l 144 843 l 153 517 l 153 489 l 156 179 q 151 171 156 176 q 144 163 147 165 q 101 161 124 163 q 58 153 78 160 q 26 131 39 146 q 14 90 14 117 q 19 64 14 78 q 33 38 24 50 q 53 17 42 25 q 79 11 65 10 q 122 10 92 11 q 188 8 153 8 q 253 6 222 7 q 297 6 285 6 l 313 6 q 349 8 329 6 q 387 17 369 10 q 416 36 404 24 q 428 71 428 49 q 403 122 428 106 q 349 146 378 138 q 294 160 319 154 q 269 179 269 167 l 269 440 l 275 446 q 293 449 276 447 q 318 451 310 451 l 369 451 q 400 451 388 451 q 427 451 414 451 q 454 447 440 450 q 488 440 468 444 q 512 410 503 429 q 531 375 521 390 q 562 304 550 342 q 579 227 574 267 q 585 148 585 188 q 585 71 586 108 m 301 864 q 326 865 308 865 q 351 865 344 865 q 468 858 410 865 q 579 826 526 850 q 615 774 607 806 q 624 711 624 743 q 591 624 624 657 q 508 576 558 592 l 463 576 q 421 579 440 576 q 381 582 401 582 q 347 579 364 582 q 313 576 331 576 l 281 576 q 274 590 278 581 q 269 604 269 600 l 269 843 q 282 858 269 854 q 301 864 294 863 z "},"S":{"ha":699,"x_min":14,"x_max":682,"o":"m 82 425 q 42 410 58 425 q 25 371 25 396 l 25 50 q 44 8 25 25 q 88 -10 64 -10 q 118 1 108 -10 q 133 23 128 11 q 145 45 139 35 q 165 56 151 56 q 204 47 186 56 q 240 28 222 39 q 275 10 257 18 q 313 1 293 1 l 449 1 q 490 15 472 1 q 525 39 507 28 q 534 44 526 40 q 551 52 542 47 q 569 61 561 57 q 579 67 576 65 q 628 117 608 88 q 659 180 647 146 q 676 250 671 214 q 682 319 682 286 q 671 397 682 363 q 640 458 660 431 q 592 511 619 486 q 535 561 565 536 q 530 564 533 563 q 525 567 526 565 q 455 583 492 575 q 383 593 418 590 q 294 600 339 597 q 213 615 249 603 q 154 657 176 628 q 132 744 132 686 q 146 801 132 775 q 183 846 160 826 q 234 876 206 865 q 293 888 263 888 q 386 868 339 888 q 471 821 433 849 q 495 778 489 807 q 506 721 501 750 q 523 669 511 692 q 565 647 535 647 q 601 664 586 647 q 617 701 617 681 l 617 957 q 602 1009 617 983 q 560 1035 588 1035 q 533 1026 544 1035 q 515 1006 522 1018 q 504 978 508 993 q 497 951 500 964 l 492 951 q 452 967 475 951 q 415 990 429 983 q 392 999 408 993 q 356 1013 375 1006 q 320 1025 338 1019 q 296 1033 303 1031 l 283 1033 q 230 1023 260 1033 q 170 997 200 1013 q 115 961 140 981 q 74 925 89 942 q 47 875 58 897 q 29 831 36 853 q 18 785 22 808 q 14 732 14 761 q 38 624 14 669 q 102 545 63 578 q 194 494 142 513 q 301 468 246 475 q 369 463 336 464 q 431 458 401 463 q 488 438 461 453 q 535 392 514 424 q 545 374 539 386 q 551 360 551 363 l 551 263 q 539 235 544 250 q 526 206 533 219 q 508 180 518 192 q 481 164 497 168 q 444 156 461 158 q 411 143 426 154 l 307 143 q 292 151 297 149 q 280 154 286 153 q 267 158 274 156 q 247 164 260 160 q 191 205 215 176 q 156 267 167 233 q 149 313 150 286 q 142 365 147 340 q 124 408 136 390 q 82 425 111 425 z "},"T":{"ha":721,"x_min":14,"x_max":704,"o":"m 106 86 q 122 55 106 69 q 160 31 138 40 q 206 15 183 21 q 244 10 229 10 q 329 24 289 10 q 414 38 369 38 q 465 28 440 38 q 515 19 489 19 q 551 23 533 19 q 582 34 568 26 q 604 55 596 42 q 613 88 613 68 q 594 138 613 121 q 548 162 575 154 q 490 171 521 169 q 438 172 460 172 l 426 183 l 419 629 l 419 657 l 417 793 q 424 838 422 813 q 426 879 426 863 l 432 885 q 442 885 433 885 q 453 886 450 886 q 494 881 472 886 q 534 863 515 875 q 565 834 553 851 q 576 793 576 817 l 576 646 q 597 600 576 621 q 642 579 618 579 q 688 604 671 579 q 704 657 704 629 l 704 933 q 683 983 704 960 q 633 1007 661 1007 l 324 1007 q 303 1015 311 1014 q 283 1015 294 1015 q 263 1015 271 1015 q 242 1007 256 1014 l 74 1007 q 51 997 61 1007 q 32 974 40 988 q 19 947 24 961 q 14 924 14 933 l 14 657 q 28 606 14 632 q 69 579 42 579 q 118 598 104 579 q 135 645 132 617 q 137 708 138 674 q 143 776 136 743 q 170 835 150 808 q 236 874 190 863 q 249 876 239 875 q 264 876 260 876 q 275 876 267 876 q 286 874 283 875 l 292 868 l 292 178 l 275 160 l 144 160 q 124 151 132 160 q 113 131 117 143 q 107 107 108 119 q 106 86 106 94 z "},"U":{"ha":851,"x_min":14,"x_max":835,"o":"m 131 249 q 151 188 143 221 q 176 129 158 154 q 279 37 218 71 q 414 3 340 3 q 511 19 464 3 q 601 64 558 36 q 659 133 635 89 q 699 217 683 176 q 708 260 707 238 q 718 303 710 282 l 718 722 q 726 747 725 736 q 726 772 726 757 q 724 808 726 792 q 721 843 721 825 q 721 857 721 850 q 732 868 721 865 q 767 871 749 869 q 800 878 785 872 q 825 896 815 883 q 835 931 835 908 q 810 986 835 965 q 753 1010 785 1007 q 740 1010 750 1010 q 722 1010 732 1010 q 703 1011 713 1011 q 690 1011 694 1011 q 642 1008 665 1011 q 593 1004 618 1004 q 569 1007 581 1004 q 543 1010 557 1010 q 495 993 515 1010 q 475 947 475 976 q 485 913 475 926 q 511 890 496 899 q 544 876 526 881 q 579 868 563 871 q 592 853 589 864 q 596 833 596 843 l 596 831 q 593 814 594 826 q 590 799 592 801 q 590 533 592 672 q 585 271 588 393 q 568 232 581 254 q 538 191 556 210 q 499 159 519 172 q 460 146 479 146 l 363 146 q 331 161 349 146 q 298 197 314 176 q 272 238 282 217 q 261 271 261 258 l 261 592 q 252 629 251 607 q 253 668 253 651 q 253 713 253 681 q 256 779 254 746 q 260 839 257 813 q 269 868 264 865 q 310 872 289 869 q 347 881 331 874 q 374 902 364 888 q 385 942 385 917 q 366 990 385 969 q 318 1010 347 1010 l 74 1010 q 28 987 43 1010 q 14 936 14 964 q 18 903 14 921 q 42 879 22 885 l 131 856 l 131 249 z "},"V":{"ha":835,"x_min":14,"x_max":818,"o":"m 128 868 q 87 872 107 869 q 50 883 67 875 q 24 906 33 890 q 14 947 14 921 q 29 990 14 969 q 68 1010 44 1010 l 313 1010 q 357 988 340 1010 q 374 942 374 967 q 365 906 374 918 q 342 886 356 893 q 310 876 328 879 q 275 868 293 872 q 269 863 269 868 l 343 581 l 343 542 l 411 282 q 421 265 414 272 q 433 278 428 268 q 438 292 438 289 l 514 596 q 530 695 517 647 q 557 792 543 743 q 566 824 564 815 q 568 850 568 832 q 569 860 568 853 q 563 868 569 867 q 498 892 526 868 q 469 953 469 917 q 485 993 469 976 q 525 1010 500 1010 l 704 1010 q 740 1006 721 1010 q 777 992 760 1001 q 806 969 794 983 q 818 936 818 956 q 810 901 818 914 q 788 881 801 888 q 757 872 775 875 q 721 868 739 869 q 693 831 701 853 q 651 651 671 739 q 606 471 631 563 q 588 394 596 435 q 563 319 581 353 l 508 64 q 478 24 503 43 q 429 4 454 4 q 381 19 406 4 q 340 53 356 33 q 324 83 329 67 q 316 118 318 100 q 313 154 314 136 q 307 189 311 172 q 269 344 292 268 q 226 499 246 419 q 218 550 219 524 q 210 601 217 576 q 206 615 210 604 q 199 637 203 625 q 191 659 194 649 q 188 672 188 669 q 181 699 186 678 q 172 746 176 721 q 162 792 167 771 q 156 819 157 814 q 147 848 151 835 q 128 868 143 861 z "},"W":{"ha":840,"x_min":13,"x_max":824,"o":"m 13 939 q 20 906 13 918 q 38 882 28 893 q 59 857 49 871 q 74 819 69 843 q 124 548 99 683 q 171 276 149 413 q 178 219 175 253 q 185 150 181 185 q 196 83 189 115 q 215 32 203 51 q 240 9 226 14 q 272 4 253 4 q 311 12 297 4 q 333 33 325 19 q 344 65 340 47 q 351 101 347 82 q 387 330 374 215 q 417 558 400 444 q 422 585 418 569 q 426 601 425 601 l 432 601 q 437 585 433 601 q 443 558 440 569 q 463 440 454 500 q 476 319 471 379 q 477 301 476 315 q 478 268 478 286 q 481 235 479 250 q 482 217 482 221 q 485 174 483 201 q 490 119 486 147 q 499 67 493 92 q 514 32 506 43 q 565 4 535 4 q 610 30 590 4 q 642 95 629 56 q 665 184 656 135 q 683 281 675 233 q 697 370 690 329 q 710 433 703 411 q 713 447 711 438 q 718 466 715 456 q 723 485 721 476 q 726 499 725 494 q 756 670 744 585 q 786 842 767 756 q 795 866 789 856 q 808 887 801 876 q 819 909 814 897 q 824 936 824 921 q 813 978 824 961 q 775 999 801 996 q 725 1006 753 1001 q 674 1010 697 1010 q 622 994 644 1010 q 600 946 600 978 q 607 915 600 924 q 623 901 614 906 q 642 891 632 896 q 661 874 653 886 l 661 833 q 655 767 661 799 q 644 700 649 735 q 619 526 633 611 q 585 351 606 440 l 582 351 q 572 383 578 351 q 558 464 565 415 q 542 570 550 513 q 528 680 535 628 q 518 771 522 732 q 514 819 514 810 l 514 857 q 524 873 515 867 q 541 887 532 879 q 557 906 550 894 q 564 940 564 918 q 540 986 564 972 q 482 1004 515 1000 q 415 1008 449 1008 q 361 1010 381 1007 l 358 1010 q 310 990 329 1010 q 290 942 290 969 q 295 915 290 925 q 308 897 300 904 q 326 881 317 889 q 346 863 336 874 l 346 822 l 346 782 q 343 767 346 779 q 338 741 340 754 q 332 715 335 728 q 329 700 329 703 q 317 583 322 642 q 301 467 311 525 q 297 435 300 454 q 290 399 293 417 q 283 369 286 382 q 281 357 281 357 l 275 357 q 247 524 264 440 q 215 689 231 607 q 198 760 208 726 q 188 833 188 794 l 188 863 q 205 876 193 872 q 227 887 217 881 q 246 903 238 893 q 254 936 254 914 q 239 974 254 960 q 202 997 224 989 q 156 1007 181 1004 q 114 1010 132 1010 q 76 1008 94 1010 q 44 998 58 1006 q 21 976 29 990 q 13 939 13 963 z "},"X":{"ha":840,"x_min":14,"x_max":824,"o":"m 14 90 q 49 25 14 46 q 125 4 83 4 l 128 4 q 141 7 131 4 q 163 13 151 10 q 185 18 175 15 q 199 21 196 21 q 222 22 203 21 q 261 24 240 22 q 301 26 282 25 q 324 26 319 26 q 360 43 347 28 q 372 81 372 58 q 361 113 372 101 q 337 134 350 125 q 313 153 324 143 q 301 181 301 164 l 301 194 q 356 296 329 249 q 411 401 383 343 q 417 407 413 407 q 425 407 421 407 q 446 390 435 407 q 466 352 457 374 q 482 310 475 331 q 492 282 489 289 q 517 231 503 257 q 547 183 532 206 l 547 178 q 535 158 547 165 q 508 141 522 150 q 481 119 493 132 q 469 83 469 107 q 494 42 469 51 q 547 26 519 32 q 641 20 594 25 q 735 15 688 15 q 797 33 771 15 q 824 89 824 51 q 812 133 824 122 q 782 147 800 144 q 743 149 764 149 q 704 161 722 150 q 681 192 699 164 q 640 260 664 219 q 588 346 615 300 q 538 433 561 392 q 501 506 515 475 q 486 543 486 536 q 492 568 486 556 q 506 594 497 581 q 522 619 514 607 q 536 640 531 631 q 542 651 538 642 q 552 670 547 660 q 562 689 557 681 q 568 700 567 697 q 589 742 578 717 q 613 791 600 767 q 638 836 625 815 q 667 868 651 857 q 713 869 688 868 q 761 876 739 869 q 799 897 783 882 q 814 942 814 911 q 805 978 814 965 q 782 999 796 992 q 749 1008 768 1006 q 713 1010 731 1010 q 669 1007 689 1010 q 625 1004 649 1004 q 585 1007 604 1004 q 543 1010 565 1010 q 510 1008 526 1010 q 479 1001 493 1007 q 457 984 465 996 q 449 951 449 972 q 459 916 449 928 q 481 895 469 904 q 503 877 493 886 q 514 851 514 868 q 503 813 514 840 q 478 757 493 786 q 449 706 464 728 q 424 683 433 683 q 400 705 415 683 q 370 755 385 726 q 344 810 356 783 q 333 847 333 836 q 343 869 333 861 q 364 884 353 876 q 385 903 375 892 q 394 938 394 914 q 390 971 394 953 q 367 993 386 989 l 301 1010 l 79 1010 q 37 990 50 1010 q 24 946 24 971 q 39 897 24 913 q 78 874 54 881 q 129 868 101 868 q 182 868 157 868 q 210 844 199 861 q 231 806 222 826 q 247 763 239 785 q 264 726 254 742 q 271 715 265 724 q 283 697 276 707 q 294 678 289 688 q 301 667 300 669 q 310 651 304 663 q 324 628 317 640 q 337 603 331 615 q 346 586 343 592 q 351 568 351 575 q 351 550 351 561 q 337 498 351 531 q 301 431 322 465 q 260 367 281 397 q 226 319 239 336 q 203 269 210 297 q 182 217 197 240 q 173 202 179 213 q 158 182 167 192 q 140 165 150 172 q 122 157 131 157 l 57 157 q 37 150 44 157 q 24 133 29 143 q 16 110 18 122 q 14 90 14 99 z "},"Y":{"ha":851,"x_min":14,"x_max":835,"o":"m 165 81 q 190 26 165 49 q 247 4 215 4 l 428 4 l 454 13 l 644 13 q 685 38 671 13 q 700 85 700 63 q 674 125 700 113 q 622 140 647 138 q 599 142 615 140 q 565 144 583 143 q 531 145 547 144 q 508 146 515 146 l 503 151 l 492 206 l 492 407 q 494 414 492 408 q 497 422 496 419 q 582 599 540 511 q 667 776 624 688 q 676 795 669 783 q 688 819 682 807 q 698 841 693 832 q 704 853 703 850 q 713 862 707 856 q 721 868 718 868 l 797 868 q 815 874 807 868 q 826 890 822 881 q 833 908 831 899 q 835 926 835 918 q 824 963 835 947 q 797 988 814 978 q 761 1004 781 999 q 724 1010 742 1010 q 683 1007 703 1010 q 642 1004 664 1004 q 598 1007 618 1004 q 554 1010 578 1010 q 506 997 526 1010 q 486 953 486 983 q 494 917 486 928 q 515 898 503 906 q 541 883 528 890 q 563 863 554 876 q 564 853 564 860 q 564 844 564 847 q 558 808 564 825 q 543 776 551 792 q 525 744 535 760 q 508 711 515 728 q 504 700 507 708 q 498 681 501 692 q 491 662 494 671 q 488 651 488 653 q 480 636 485 647 q 469 613 475 625 q 457 590 463 600 q 449 575 451 579 q 442 569 447 569 q 435 569 438 569 q 419 576 426 569 q 407 592 413 583 q 397 612 401 601 q 389 629 393 622 l 307 793 q 297 819 304 799 q 286 847 289 840 q 285 849 286 847 q 285 853 285 851 q 298 868 285 864 q 326 878 311 872 q 355 895 342 883 q 368 932 368 907 q 349 981 368 965 q 301 1001 329 996 q 244 1004 274 1006 q 193 1004 214 1003 q 180 1007 190 1004 q 167 1010 169 1010 l 158 1010 q 111 1006 136 1010 q 65 993 86 1003 q 28 966 43 983 q 14 921 14 949 q 27 883 14 896 q 59 865 40 869 q 99 859 78 860 q 139 858 121 858 q 162 833 153 847 q 178 801 171 818 q 192 768 185 785 q 210 738 200 751 q 218 728 211 736 q 226 717 225 719 q 249 654 240 685 q 281 597 257 624 l 367 407 l 367 151 l 363 146 q 346 145 360 146 q 325 144 332 144 q 281 148 301 144 q 239 151 261 151 q 188 130 211 151 q 165 81 165 108 z "},"Z":{"ha":743,"x_min":14,"x_max":726,"o":"m 14 83 q 29 38 14 54 q 67 15 44 22 q 115 5 89 7 q 163 3 140 3 q 195 3 179 3 q 226 13 211 4 l 656 13 q 702 32 678 13 q 726 75 726 51 l 726 353 q 712 401 726 378 q 669 424 697 424 q 629 408 642 424 q 611 369 617 393 q 604 315 606 344 q 599 256 603 285 q 588 201 596 226 q 558 163 579 176 q 540 152 553 158 q 525 146 528 146 l 232 146 q 217 153 221 146 q 214 168 214 161 q 230 202 214 176 q 267 259 246 228 q 308 318 288 290 q 335 358 328 346 q 339 365 336 360 q 346 377 342 371 q 353 389 350 383 q 357 396 356 394 q 422 481 386 440 q 488 564 457 521 q 526 636 511 597 q 569 706 542 675 q 610 754 586 726 q 657 814 635 782 q 695 879 679 846 q 711 942 711 913 q 696 982 711 968 q 656 1000 681 996 q 608 1000 640 1000 q 536 1001 576 1000 q 451 1002 496 1001 q 367 1003 407 1003 q 294 1005 326 1004 q 247 1006 263 1006 l 222 1006 q 172 998 189 1006 q 147 975 156 990 q 135 938 139 960 q 128 890 132 917 q 125 876 128 888 q 119 851 122 864 q 115 825 117 838 q 113 810 113 813 q 112 800 113 808 q 111 781 111 792 q 111 758 111 769 q 111 742 111 747 q 111 728 111 738 q 111 707 111 718 q 112 687 111 696 q 113 674 113 678 q 128 635 115 651 q 164 618 140 618 q 212 648 200 618 q 228 717 224 678 q 238 794 232 756 q 269 847 244 832 q 280 853 274 850 q 293 860 286 857 q 306 867 300 864 q 313 869 311 869 l 519 869 q 530 863 528 869 q 532 850 532 856 q 509 804 532 839 q 457 730 486 769 q 400 653 428 690 q 363 603 372 617 q 318 535 339 569 q 275 467 297 500 q 212 378 246 421 q 150 288 178 335 q 115 241 138 265 q 69 190 92 217 q 31 137 47 164 q 14 83 14 110 z "},"[":{"ha":694,"x_min":196,"x_max":435,"o":"m 196 914 l 196 -57 q 203 -88 196 -81 q 221 -96 210 -96 q 235 -94 228 -96 q 251 -92 243 -93 q 257 -90 253 -90 q 272 -87 264 -89 q 285 -86 279 -86 q 301 -87 290 -86 q 324 -92 311 -89 q 338 -93 331 -92 q 354 -94 346 -94 q 365 -96 360 -96 q 376 -96 371 -96 q 417 -88 399 -96 q 435 -57 435 -81 q 423 -15 435 -26 q 396 -3 411 -3 q 367 -8 382 -3 l 364 -8 q 349 -11 357 -10 q 336 -12 342 -12 q 314 -2 324 -12 q 304 32 304 8 l 304 824 q 335 861 304 861 q 349 860 342 861 q 367 857 357 858 l 369 857 q 388 853 379 854 q 403 851 397 851 q 426 861 417 851 q 435 893 435 871 q 417 933 435 922 q 376 943 399 943 q 367 943 372 943 q 357 942 361 943 q 343 940 350 942 q 329 938 336 939 q 309 934 318 936 q 294 932 300 932 q 281 933 289 932 q 263 936 272 935 q 260 937 261 936 q 257 938 258 938 q 241 940 249 939 q 228 940 233 940 q 206 935 215 940 q 196 914 196 929 z "},"\\":{"ha":797,"x_min":14,"x_max":781,"o":"m 488 294 q 504 262 499 279 q 519 229 510 244 q 563 151 542 192 q 601 71 585 111 q 626 8 614 40 q 661 -49 638 -25 q 689 -60 672 -60 q 718 -60 707 -60 q 731 -60 721 -60 q 751 -59 740 -60 q 772 -55 763 -58 q 781 -43 781 -51 l 781 -6 q 774 9 779 -4 q 761 41 769 22 q 749 71 753 60 q 704 151 729 113 q 656 229 679 190 q 628 285 639 256 q 601 343 617 315 q 524 490 558 414 q 454 642 490 567 q 325 885 394 767 q 193 1126 256 1003 q 184 1145 190 1132 q 171 1174 178 1158 q 158 1204 164 1190 q 150 1224 151 1218 q 104 1251 133 1251 q 78 1250 93 1251 q 48 1244 63 1249 q 24 1231 33 1240 q 14 1207 14 1222 l 14 1196 q 90 1048 47 1121 q 172 903 133 975 q 177 894 174 900 q 182 886 181 889 l 324 610 l 335 593 l 488 294 z "},"`":{"ha":296,"x_min":13,"x_max":279,"o":"m 13 964 q 54 924 13 924 q 105 940 83 924 q 150 968 126 956 q 189 986 167 978 q 231 1005 211 994 q 265 1031 251 1015 q 279 1071 279 1047 q 265 1113 279 1096 q 222 1131 250 1131 q 192 1124 206 1131 q 165 1108 178 1118 q 141 1089 153 1099 q 117 1071 129 1079 q 108 1066 115 1069 q 92 1058 100 1063 q 76 1049 83 1053 q 68 1044 69 1046 q 60 1037 67 1043 q 46 1023 54 1031 q 31 1008 38 1015 q 19 996 24 1000 q 13 979 13 989 q 13 964 13 971 z "},"a":{"ha":775,"x_min":14,"x_max":758,"o":"m 14 224 q 40 109 14 158 q 122 26 65 60 q 144 12 133 19 q 171 4 156 4 l 296 4 q 342 13 319 4 q 385 35 364 22 q 426 63 406 49 q 465 86 446 76 l 472 86 q 490 79 482 86 q 503 63 497 72 q 516 45 510 54 q 531 32 522 36 q 574 10 554 17 q 619 4 593 4 q 678 19 653 4 q 722 59 704 35 q 749 114 739 83 q 758 175 758 144 q 756 203 758 189 q 746 231 753 218 q 728 251 739 243 q 701 260 717 260 q 663 240 672 260 q 650 197 654 221 q 640 153 646 172 q 613 133 635 133 q 579 172 579 133 l 579 407 q 585 445 586 424 q 585 483 585 467 l 585 526 q 583 541 585 531 q 578 563 581 551 q 572 586 575 575 q 568 601 569 597 q 547 642 564 618 q 506 686 529 665 q 459 722 483 707 q 417 738 435 738 l 204 738 q 165 724 182 738 q 133 700 149 711 q 97 673 115 688 q 65 642 79 658 q 43 606 51 625 q 35 561 35 586 q 63 489 35 518 q 136 460 92 460 q 183 472 165 460 q 209 501 200 483 q 222 539 218 518 q 230 577 226 560 q 238 606 233 594 q 253 618 242 618 l 383 618 q 401 610 385 618 q 426 597 418 601 q 457 564 449 585 q 465 519 465 543 q 432 475 465 486 q 349 460 399 464 q 240 451 299 456 q 131 424 181 446 q 47 356 81 403 q 14 224 14 310 m 122 225 q 133 261 122 240 q 150 292 143 282 q 182 314 164 313 q 251 322 217 319 q 318 331 285 325 q 341 334 322 331 q 381 341 360 338 q 420 348 401 344 q 443 351 439 351 l 446 353 q 448 352 447 353 q 449 351 449 351 q 454 349 450 351 q 460 347 458 347 l 460 331 q 442 233 460 271 q 372 161 424 196 q 359 154 369 160 q 346 146 349 149 q 333 139 340 143 q 324 135 325 135 l 182 135 q 157 144 168 135 q 138 169 146 154 q 126 199 131 183 q 122 225 122 214 z "},"b":{"ha":792,"x_min":13,"x_max":775,"o":"m 313 51 q 338 40 329 51 q 363 24 347 29 q 419 4 390 13 q 479 -4 449 -4 q 581 17 535 -4 q 661 74 626 39 q 720 156 696 110 q 758 251 744 201 q 763 269 760 258 q 769 290 767 279 q 773 308 771 300 q 775 317 775 317 l 775 464 q 773 474 775 465 q 769 485 771 482 q 747 549 758 521 q 721 601 736 576 q 686 648 706 625 q 639 697 667 671 q 610 725 625 710 q 574 740 596 740 l 438 740 q 407 731 421 740 q 380 710 393 722 q 353 690 367 699 q 324 681 340 681 q 315 683 319 681 q 310 692 310 685 l 310 931 q 303 955 310 943 q 285 976 296 967 q 261 990 274 985 q 238 996 249 996 l 68 996 q 57 990 63 996 q 49 983 54 989 q 38 972 44 978 q 26 960 32 965 q 19 953 21 954 q 13 938 13 946 q 14 922 14 931 q 26 887 14 900 q 58 866 39 874 q 98 856 76 858 q 136 854 119 854 q 138 855 138 854 q 139 856 139 856 q 156 858 142 856 q 172 860 169 860 q 176 858 172 860 q 182 856 179 857 q 188 852 185 854 q 190 850 190 850 l 190 274 q 198 251 197 260 q 199 228 199 242 q 190 156 199 192 q 182 85 182 121 q 194 33 182 56 q 239 11 207 11 q 274 20 264 11 q 301 50 283 29 q 308 51 304 50 q 313 51 311 51 m 661 372 q 649 272 661 315 q 596 186 636 228 q 577 167 589 179 q 557 147 565 154 q 547 138 549 139 l 411 138 q 391 149 403 138 q 367 177 379 161 q 347 208 356 193 q 335 229 338 222 q 326 251 332 238 q 317 273 321 264 q 313 283 313 282 l 313 431 q 324 478 313 447 q 355 538 336 508 q 395 588 374 567 q 438 610 417 610 l 542 610 q 567 602 554 610 q 590 583 579 594 q 610 559 601 571 q 622 539 618 547 q 655 459 649 496 q 661 372 661 422 z "},"c":{"ha":613,"x_min":13,"x_max":597,"o":"m 13 361 q 37 233 13 297 q 104 119 61 169 q 206 36 147 68 q 332 4 264 4 q 425 24 378 4 q 510 76 472 43 q 573 151 549 108 q 597 243 597 194 q 586 285 597 267 q 550 304 575 304 q 521 292 533 304 q 497 263 508 281 q 476 225 486 246 q 452 187 465 204 q 422 158 439 169 q 383 146 406 146 l 264 146 q 251 152 261 146 q 238 163 242 158 q 223 176 233 167 q 201 197 213 186 q 181 219 190 208 q 167 233 171 229 q 140 305 147 263 q 133 382 133 347 q 139 457 133 421 q 158 524 144 493 q 197 578 172 554 q 258 619 221 603 q 277 626 265 622 q 292 629 289 629 l 383 629 q 400 619 390 629 q 411 608 410 610 l 411 586 q 406 552 411 567 q 400 519 400 538 q 429 447 400 478 q 501 417 458 417 q 542 427 525 417 q 572 454 560 438 q 590 492 583 471 q 596 535 596 514 q 583 595 596 567 q 551 648 571 624 q 506 693 531 672 q 460 733 482 714 q 439 740 454 735 q 406 749 424 744 q 373 756 389 753 q 351 760 357 760 q 338 761 350 761 q 319 761 326 761 q 184 724 242 761 q 88 630 126 688 q 31 501 50 572 q 13 361 13 429 z "},"d":{"ha":781,"x_min":14,"x_max":765,"o":"m 289 750 q 262 749 276 750 q 232 747 247 749 q 203 740 217 744 q 182 728 190 736 l 68 613 q 66 608 68 613 q 63 603 64 604 q 56 583 61 599 q 47 550 51 568 q 37 517 42 532 q 31 499 32 503 q 21 476 28 492 q 14 450 14 460 l 14 282 q 16 270 14 279 q 22 252 18 261 q 28 235 25 243 q 31 226 31 228 q 76 140 47 181 q 141 70 104 100 q 223 22 178 40 q 319 4 268 4 q 380 17 354 4 q 438 47 406 29 q 451 57 447 53 q 458 64 456 61 q 463 69 460 67 q 474 71 467 71 q 478 70 475 71 q 482 69 481 69 q 547 24 513 33 q 628 14 581 14 q 673 16 649 14 q 718 26 697 18 q 752 51 739 35 q 765 96 765 68 q 747 132 765 121 q 703 147 728 143 q 652 148 678 150 q 613 146 626 146 l 599 157 l 599 472 l 588 499 l 588 928 q 582 951 588 939 q 567 974 576 964 q 547 992 558 985 q 525 999 536 999 l 357 999 q 325 987 338 999 q 313 956 313 975 q 338 901 313 915 q 394 884 364 888 q 451 878 425 881 q 476 857 476 875 l 476 728 l 465 694 q 462 694 465 694 q 457 693 458 693 q 429 702 438 693 q 406 722 421 711 q 349 744 379 739 q 289 750 318 750 m 133 388 q 141 465 133 422 q 167 544 149 508 q 217 606 186 581 q 294 631 249 631 q 376 606 342 631 q 433 543 411 581 q 466 461 456 506 q 476 376 476 417 q 467 301 476 343 q 437 222 457 258 q 387 159 417 185 q 317 133 357 133 q 231 157 267 133 q 174 218 196 181 q 143 301 153 256 q 133 388 133 346 z "},"e":{"ha":639,"x_min":14,"x_max":624,"o":"m 14 342 q 35 212 14 274 q 94 103 56 150 q 190 28 133 56 q 318 0 247 0 q 458 26 390 0 q 568 114 526 53 q 599 165 585 139 q 613 222 613 190 q 599 254 613 242 q 565 267 586 267 q 528 256 543 267 q 499 228 513 244 q 474 193 486 211 q 449 163 463 175 q 406 141 431 147 q 361 119 381 135 q 342 119 357 119 q 324 118 328 118 q 247 134 282 118 q 187 177 213 150 q 147 240 161 204 q 132 317 132 276 q 133 328 132 319 q 133 338 133 336 l 139 342 q 154 343 139 342 q 190 345 169 344 q 233 347 211 346 q 269 347 254 347 q 324 348 285 347 q 407 349 364 349 q 491 348 451 349 q 546 347 531 347 q 589 358 568 351 q 622 386 610 365 q 623 398 622 389 q 624 410 624 407 q 618 448 624 422 q 605 501 613 474 q 588 551 597 528 q 574 582 579 574 q 460 691 521 649 q 310 733 399 733 q 278 734 294 733 q 247 728 263 735 q 233 722 243 726 q 210 710 222 717 q 186 699 197 704 q 171 690 175 693 q 95 626 125 665 q 47 540 65 586 q 22 442 29 493 q 14 342 14 390 m 144 469 q 161 530 144 504 q 203 572 178 556 q 258 597 228 589 q 318 604 289 604 q 374 598 344 604 q 429 578 404 592 q 471 542 454 565 q 488 486 488 519 q 488 476 488 483 q 486 467 488 469 q 478 460 483 464 q 471 457 474 457 l 150 457 q 144 461 144 457 q 144 469 144 467 z "},"f":{"ha":738,"x_min":14,"x_max":721,"o":"m 14 67 q 26 28 14 47 q 63 10 39 10 l 476 10 q 510 28 500 10 q 521 67 521 47 q 517 92 521 78 q 507 117 514 106 q 490 138 500 129 q 465 146 479 146 l 335 146 l 335 597 l 340 603 l 364 603 q 400 600 383 603 q 436 597 417 597 q 494 615 468 597 q 521 667 521 632 q 510 706 521 693 q 483 725 500 719 q 446 731 467 731 q 406 733 425 732 q 388 734 399 733 q 366 735 376 735 q 348 738 356 736 q 340 739 340 739 l 335 744 q 334 754 335 746 q 333 765 333 763 q 345 815 333 792 q 376 853 357 838 q 419 877 394 868 q 469 886 444 886 q 503 883 490 886 q 536 864 517 879 q 534 811 533 840 q 543 756 535 782 q 569 713 551 731 q 621 694 588 694 q 665 705 646 694 q 696 733 683 715 q 715 773 708 751 q 721 818 721 794 q 694 903 721 868 q 628 962 668 939 q 540 995 588 985 q 451 1006 493 1006 l 449 1006 q 407 998 432 1001 q 363 983 382 994 q 353 978 360 982 q 346 972 347 974 q 286 929 308 950 q 250 885 264 908 q 228 831 236 861 q 210 760 219 801 l 199 750 q 147 751 178 750 q 90 748 117 753 q 43 728 63 743 q 24 682 24 714 q 24 669 24 679 q 25 657 25 660 q 63 619 46 632 q 110 607 79 607 q 147 616 131 607 q 182 625 164 625 q 200 619 190 625 q 210 603 210 613 l 210 157 l 204 151 q 197 149 204 151 q 182 146 190 147 q 165 142 174 144 q 150 140 156 140 l 136 140 q 112 143 124 140 q 88 146 100 146 q 33 124 51 146 q 14 67 14 101 z "},"g":{"ha":758,"x_min":14,"x_max":743,"o":"m 14 -64 q 45 -166 14 -128 q 133 -224 76 -204 q 152 -234 144 -226 q 171 -246 160 -242 q 285 -272 229 -267 q 403 -278 340 -278 q 516 -266 458 -278 q 621 -227 574 -254 q 697 -155 668 -200 q 726 -43 726 -110 q 719 4 726 -17 q 700 42 713 25 q 671 75 688 60 q 633 108 654 90 q 619 121 624 117 q 613 128 615 125 q 605 133 610 131 q 590 140 600 136 q 535 149 567 149 q 486 151 504 149 q 472 154 483 151 q 446 160 460 157 q 420 165 432 163 q 406 168 408 168 l 357 168 q 263 154 308 168 q 168 140 217 140 q 154 146 161 140 q 144 157 147 151 l 144 176 q 153 216 144 199 q 189 233 163 233 q 231 227 211 233 q 269 214 250 221 q 307 201 288 207 q 349 194 326 194 q 376 197 365 194 q 395 203 386 199 q 414 212 404 207 q 438 222 424 217 q 499 260 474 236 q 542 316 525 285 q 566 383 558 347 q 574 457 574 419 q 564 523 574 492 q 554 589 554 554 q 570 575 563 589 q 589 544 578 561 q 618 513 600 526 q 667 499 636 499 q 726 530 710 499 q 743 600 743 561 q 728 656 743 631 q 691 698 714 681 q 639 724 668 715 q 582 733 610 733 q 486 694 528 733 l 460 694 q 422 701 440 694 q 387 714 404 707 q 351 727 369 721 q 315 733 333 733 q 303 731 311 733 q 286 726 294 729 q 270 721 278 724 q 258 717 263 718 q 134 617 179 682 q 89 464 89 551 q 98 403 89 432 q 107 342 107 374 q 107 333 107 339 q 106 325 107 328 q 51 258 72 293 q 29 175 29 222 q 35 145 29 160 q 47 117 40 131 q 58 89 53 103 q 64 61 64 75 l 63 54 q 26 1 39 28 q 14 -64 14 -25 m 133 -71 l 133 -47 q 156 6 133 -12 q 212 35 179 25 q 281 47 244 44 q 343 49 317 49 q 408 46 363 49 q 499 33 453 43 q 581 3 546 22 q 617 -50 617 -17 q 603 -86 617 -71 q 569 -112 589 -101 q 528 -131 550 -124 q 492 -142 507 -137 q 405 -146 451 -144 q 314 -147 358 -147 q 215 -129 260 -147 q 133 -71 169 -111 m 188 458 q 200 515 188 489 q 233 561 213 542 q 281 592 254 581 q 338 603 308 603 q 433 560 401 603 q 465 456 465 518 q 456 397 465 425 q 428 349 446 369 q 384 315 410 328 q 326 303 358 303 q 272 317 297 303 q 227 352 246 331 q 198 401 208 374 q 188 458 188 429 z "},"h":{"ha":840,"x_min":14,"x_max":824,"o":"m 14 68 q 41 13 14 35 q 100 -10 68 -10 q 153 -1 128 -10 q 206 7 178 7 q 252 3 229 7 q 300 0 275 0 q 356 6 331 0 q 400 39 381 13 l 400 64 q 381 117 400 103 q 340 135 363 131 q 299 145 318 140 q 281 169 281 150 l 281 306 q 283 319 281 308 q 286 333 285 331 q 287 340 286 335 q 288 352 288 346 q 290 364 289 358 q 292 371 292 369 q 323 449 303 408 q 371 525 343 490 q 435 583 399 560 q 517 606 472 606 q 565 589 550 606 q 584 548 579 572 q 587 495 589 524 q 585 443 585 467 l 585 354 q 584 315 585 343 q 583 253 583 286 q 581 192 582 221 q 579 153 579 164 q 560 144 571 146 q 539 140 550 142 q 517 136 528 139 q 497 126 507 133 q 466 97 474 107 q 458 58 458 86 q 465 32 458 42 q 484 16 472 22 q 510 7 496 10 q 536 1 524 4 q 565 1 543 1 q 593 0 586 0 q 642 3 618 0 q 690 7 665 7 q 713 4 701 7 q 735 1 724 1 q 796 17 768 1 q 824 69 824 33 q 815 106 824 92 q 791 128 806 119 q 758 139 776 136 q 721 143 739 142 l 704 158 l 704 533 q 691 613 704 576 q 654 677 678 650 q 595 719 631 704 q 517 735 560 735 q 413 710 461 735 q 329 643 365 685 q 315 618 322 635 q 296 599 307 601 q 287 600 293 599 q 278 601 281 601 l 278 903 q 249 963 278 942 q 185 985 219 985 l 176 985 q 163 982 174 985 q 150 979 153 979 q 108 978 132 978 q 67 974 86 978 q 33 956 47 969 q 19 917 19 943 q 22 899 19 911 q 31 874 25 886 q 42 852 36 861 q 57 843 49 843 l 133 843 q 147 835 142 843 q 156 822 153 828 q 156 794 156 814 q 158 751 157 774 q 160 708 158 728 q 161 681 161 689 q 163 667 161 678 q 167 653 165 656 l 167 474 l 158 447 l 158 143 q 149 132 158 140 q 133 121 139 124 q 126 120 133 121 q 115 119 119 119 q 87 126 99 119 q 58 132 75 132 q 22 112 31 132 q 14 68 14 92 z "},"i":{"ha":601,"x_min":14,"x_max":586,"o":"m 14 67 q 28 26 14 43 q 68 10 43 10 l 542 10 q 576 29 565 10 q 586 68 586 49 q 583 92 586 78 q 572 118 579 106 q 553 140 564 131 q 531 149 543 149 l 383 149 l 375 157 l 375 674 q 349 718 375 703 q 300 733 324 733 q 267 731 283 733 q 235 728 251 728 q 188 731 211 728 q 142 733 165 733 q 108 731 126 733 q 73 723 89 729 q 46 704 57 717 q 35 669 35 692 q 38 645 35 658 q 49 621 42 632 q 66 602 56 610 q 90 594 76 594 l 253 594 l 253 288 q 250 274 251 285 q 247 260 249 263 q 247 240 247 254 q 244 211 246 226 q 242 182 243 196 q 242 163 242 168 l 232 149 l 79 149 q 30 122 46 149 q 14 67 14 94 m 199 904 q 223 825 199 858 q 294 792 247 792 q 364 816 333 792 q 394 882 394 840 q 387 924 394 903 q 366 962 379 944 q 334 990 353 979 q 293 1000 315 1000 q 225 972 251 1000 q 199 904 199 944 z "},"j":{"ha":542,"x_min":14,"x_max":526,"o":"m 14 -14 q 17 -76 14 -42 q 31 -136 19 -110 q 65 -190 42 -165 q 119 -233 89 -215 q 181 -262 149 -251 q 244 -272 214 -272 q 288 -265 260 -272 q 344 -247 315 -258 q 399 -220 374 -235 q 433 -190 424 -206 q 485 -64 469 -132 q 508 71 500 4 q 512 115 511 94 q 519 157 513 135 l 519 685 q 505 719 519 704 q 471 733 490 733 l 238 733 q 193 719 215 733 q 171 682 171 704 q 182 642 171 658 q 210 617 193 626 q 249 602 228 607 q 289 597 269 597 q 333 601 313 597 q 378 604 354 604 q 392 604 383 604 q 400 603 400 604 l 411 593 q 412 583 411 592 q 413 571 413 575 q 411 541 413 556 q 403 511 410 526 l 403 233 q 397 220 400 231 q 394 207 394 210 l 394 114 q 394 88 394 107 q 392 49 393 69 q 390 9 392 28 q 389 -17 389 -10 q 384 -33 388 -21 q 378 -49 381 -46 q 376 -56 378 -51 q 372 -60 374 -60 l 313 -119 q 308 -122 313 -121 q 303 -125 304 -124 l 286 -131 l 204 -131 q 189 -124 197 -131 q 173 -109 181 -118 q 160 -90 165 -100 q 156 -74 156 -81 q 165 -56 156 -67 q 185 -30 174 -44 q 206 3 197 -15 q 215 46 215 22 q 190 117 215 86 q 125 147 165 147 q 90 143 106 147 q 63 119 75 139 q 30 56 46 93 q 14 -14 14 19 m 344 911 q 350 873 344 892 q 366 839 356 854 q 392 814 376 824 q 431 804 408 804 q 469 813 451 804 q 499 837 486 822 q 519 871 513 851 q 526 910 526 890 q 519 946 526 926 q 498 983 511 965 q 468 1011 485 1000 q 433 1022 451 1022 q 421 1022 426 1022 q 411 1017 417 1022 q 364 971 383 993 q 344 911 344 949 z "},"k":{"ha":825,"x_min":14,"x_max":810,"o":"m 14 68 q 40 19 14 32 q 96 0 65 6 l 158 0 q 224 3 192 0 q 289 6 256 6 q 327 3 308 6 q 365 0 346 0 q 409 14 389 0 q 449 28 429 28 q 471 21 460 28 q 493 11 482 14 q 529 4 506 8 q 564 0 553 0 l 647 0 l 732 0 q 758 6 744 3 q 783 16 772 10 q 802 32 794 22 q 810 57 810 42 q 809 67 810 60 q 808 76 808 75 q 784 124 800 108 q 747 145 768 139 q 699 152 725 151 q 646 153 674 153 q 612 196 622 171 q 585 244 601 221 q 576 257 583 247 q 558 278 568 267 q 540 298 549 289 q 531 310 532 307 q 492 361 513 333 q 471 418 471 389 q 477 444 471 435 q 493 461 483 454 q 515 475 503 468 q 536 490 526 482 q 563 517 549 500 q 596 550 578 533 q 633 579 614 567 q 672 593 651 592 q 707 594 690 594 q 739 599 725 594 q 762 613 753 603 q 771 647 771 624 q 744 698 771 682 q 683 720 718 714 q 610 726 647 726 q 553 725 574 725 q 539 725 549 725 q 517 724 529 725 q 496 724 506 724 q 482 724 486 724 q 447 706 463 718 q 432 672 432 694 q 449 631 432 649 q 482 599 467 614 q 471 585 479 596 q 460 571 463 574 q 431 542 451 563 q 388 497 411 521 q 343 453 364 474 q 314 425 322 433 q 310 424 313 425 q 308 424 308 424 q 301 424 306 424 q 297 431 297 425 l 297 740 q 302 761 301 753 q 303 781 303 769 q 299 850 303 819 q 297 925 294 881 q 266 977 293 958 q 207 996 239 996 l 204 996 q 188 993 201 996 q 172 990 175 990 l 169 990 l 167 990 q 150 993 164 990 q 133 996 136 996 l 125 996 q 64 978 93 996 q 35 925 35 960 q 47 886 35 899 q 76 869 58 874 q 117 865 94 865 q 161 865 140 865 q 175 849 168 860 q 182 828 182 838 l 182 375 l 175 349 l 175 153 q 169 151 175 153 q 161 147 164 149 l 144 142 l 51 142 q 38 133 44 142 q 25 111 31 124 q 17 86 19 99 q 14 68 14 74 m 379 338 q 404 310 385 338 q 444 249 424 283 q 482 183 465 215 q 499 142 499 151 q 481 108 499 125 q 447 92 463 92 q 442 92 444 92 q 439 93 439 92 q 428 100 436 93 q 417 108 419 107 q 392 115 411 111 q 351 124 372 118 q 314 136 331 129 q 297 153 297 143 l 297 267 q 303 274 299 268 q 317 290 308 281 q 329 304 325 300 q 351 326 339 315 q 379 338 364 338 z "},"l":{"ha":688,"x_min":13,"x_max":672,"o":"m 13 65 q 34 26 13 42 q 79 10 56 10 l 617 10 q 659 29 646 10 q 672 74 672 49 q 669 98 672 85 q 658 122 665 111 q 641 141 651 133 q 617 149 631 149 l 432 149 l 418 161 l 418 900 q 406 940 418 924 q 376 965 394 956 q 338 978 358 974 q 299 982 317 982 q 261 979 279 982 q 224 976 243 976 q 174 982 199 976 q 125 988 150 988 q 60 973 90 988 q 31 919 31 958 q 35 892 31 901 q 47 878 39 883 q 65 869 54 872 q 90 863 76 867 q 123 851 110 856 q 160 846 136 846 l 182 846 q 197 848 186 846 q 221 853 208 850 q 244 858 233 856 q 258 863 254 861 q 279 852 263 861 q 296 835 296 843 l 296 601 l 288 575 l 288 157 l 281 149 l 68 149 q 42 140 53 149 q 25 118 32 131 q 15 91 18 106 q 13 65 13 76 z "},"m":{"ha":846,"x_min":14,"x_max":829,"o":"m 568 18 q 592 10 581 18 q 617 1 604 3 q 693 -16 657 -6 q 769 -26 729 -26 q 813 -1 796 -26 q 829 47 829 24 q 823 73 829 64 q 808 90 817 82 q 790 105 799 97 q 775 126 781 113 l 775 189 q 774 231 775 204 q 781 278 774 258 l 781 588 q 778 599 781 590 q 775 610 776 607 q 754 652 765 632 q 728 688 743 672 q 692 714 713 704 q 647 724 672 724 q 592 715 613 724 q 557 694 572 707 q 527 665 542 682 q 492 632 513 649 q 460 663 474 646 q 431 694 446 679 q 397 719 417 708 q 349 729 378 729 q 315 721 333 729 q 281 701 297 713 q 250 676 264 690 q 226 653 236 663 l 224 653 l 221 653 q 210 662 217 654 q 197 677 204 669 q 185 692 190 685 q 176 701 179 699 q 147 713 165 713 q 114 714 129 714 q 51 701 78 714 q 25 647 25 689 q 38 608 25 621 q 66 590 50 596 q 94 582 82 585 q 107 572 107 579 l 107 207 l 96 132 q 81 119 94 122 q 53 110 68 115 q 26 93 39 104 q 14 57 14 82 q 23 27 14 42 q 45 2 32 13 q 75 -15 58 -8 q 107 -21 92 -21 l 221 -21 q 244 -15 232 -21 q 266 -2 256 -10 q 285 14 276 6 q 301 28 294 22 l 304 28 q 326 20 311 28 q 360 3 342 13 q 394 -13 378 -6 q 422 -21 411 -21 l 503 -21 q 522 -15 514 -21 q 536 -1 529 -8 q 551 12 543 6 q 568 18 558 18 m 340 593 q 349 594 343 593 q 357 594 354 594 q 376 592 364 594 q 389 576 389 590 l 389 147 q 377 129 389 140 q 350 106 365 118 q 320 83 335 93 q 301 67 306 72 l 297 67 q 281 83 294 71 q 264 99 268 96 q 248 104 261 100 q 232 110 235 108 q 225 115 229 111 q 221 121 221 119 l 221 382 q 231 441 221 410 q 257 501 240 472 q 295 555 274 531 q 340 593 317 579 m 492 210 q 497 340 492 275 q 525 468 503 406 q 530 476 525 469 q 536 485 535 483 q 545 501 539 489 q 558 526 551 513 q 571 551 565 539 q 579 567 576 563 q 601 586 590 578 q 628 594 613 594 q 648 592 635 594 q 661 576 661 590 l 661 136 q 653 117 661 124 q 635 108 646 111 q 613 102 624 104 q 596 99 601 100 l 574 88 l 568 88 l 563 88 q 523 106 538 96 q 501 131 508 117 q 493 165 494 146 q 492 210 492 183 z "},"n":{"ha":786,"x_min":14,"x_max":769,"o":"m 14 79 q 25 35 14 49 q 55 15 36 21 q 97 9 74 10 q 144 6 121 8 q 158 3 147 6 q 172 0 169 0 l 229 0 l 286 0 q 335 17 314 3 q 357 61 357 32 q 342 111 357 97 q 308 131 328 125 q 269 138 288 136 q 242 153 250 140 l 242 174 q 242 199 242 189 q 250 222 243 208 l 250 381 q 258 393 250 381 q 269 413 265 406 q 275 422 271 415 q 281 429 279 428 q 316 485 296 456 q 361 540 336 515 q 416 582 386 565 q 481 599 446 599 q 521 595 501 599 q 553 571 540 592 q 553 556 553 567 q 555 533 554 544 q 556 510 556 521 q 557 494 557 499 q 560 478 558 492 q 563 463 563 465 l 563 460 l 563 457 q 559 440 563 453 q 554 424 556 428 l 554 213 l 542 158 l 536 153 q 462 135 492 150 q 432 68 432 121 q 476 11 432 24 q 515 10 488 11 q 574 8 543 8 q 633 6 606 7 q 672 6 661 6 l 693 6 q 748 17 726 6 q 769 65 769 29 q 740 128 769 110 q 672 153 710 146 l 667 158 q 666 166 667 158 q 665 178 665 174 q 666 206 665 193 q 672 233 667 218 l 672 576 q 657 639 672 608 q 617 693 642 669 q 562 731 593 717 q 500 746 531 746 q 406 719 450 746 q 324 664 363 692 q 307 647 315 658 q 290 625 299 636 q 274 606 282 614 q 258 597 267 597 q 256 597 258 597 q 253 599 254 597 q 244 658 250 635 q 225 697 239 682 q 187 719 211 711 q 122 733 163 728 q 113 735 122 735 q 100 735 104 735 q 44 722 69 735 q 18 672 18 708 q 35 623 18 639 q 73 599 53 607 q 110 585 93 590 q 128 571 128 581 l 128 250 q 122 203 124 229 q 117 158 119 178 l 111 153 q 42 138 69 150 q 14 79 14 126 z "},"o":{"ha":678,"x_min":14,"x_max":663,"o":"m 14 351 q 23 278 14 321 q 49 192 32 235 q 88 111 65 149 q 139 56 111 74 q 151 49 140 54 q 173 38 161 44 q 197 26 185 32 q 215 17 208 19 q 243 11 224 14 q 269 7 263 8 q 293 -2 285 3 q 309 -11 301 -7 q 328 -18 317 -15 q 360 -21 339 -21 q 444 1 401 -21 q 522 58 486 24 q 585 133 558 92 q 624 213 613 175 q 631 243 625 221 q 642 290 636 265 q 653 335 649 314 q 661 365 658 357 q 662 380 661 368 q 663 396 663 392 q 653 466 663 432 q 630 533 644 500 q 598 597 615 565 q 564 660 581 628 q 561 662 563 660 q 558 665 560 664 q 461 733 510 707 q 346 758 413 758 q 195 724 258 758 q 92 633 132 690 q 33 503 51 576 q 14 351 14 429 m 133 350 q 137 424 133 389 q 152 490 140 458 q 184 549 164 521 q 238 600 204 576 q 263 616 246 606 q 281 626 279 626 l 368 626 q 402 611 382 618 q 441 595 422 604 q 476 574 460 586 q 499 544 492 563 q 523 467 514 504 q 532 388 532 431 q 513 258 532 314 q 433 153 493 201 q 388 142 408 143 q 340 142 368 142 q 311 142 331 142 q 292 143 293 142 q 275 144 285 143 q 256 147 265 146 q 240 151 247 149 q 232 153 232 153 l 167 218 q 152 244 158 226 q 142 281 146 261 q 135 319 138 300 q 133 350 133 339 z "},"p":{"ha":792,"x_min":14,"x_max":776,"o":"m 14 -178 q 24 -208 14 -194 q 48 -231 33 -221 q 79 -245 63 -240 q 111 -250 96 -250 l 389 -250 q 435 -229 417 -250 q 454 -182 454 -208 q 452 -160 454 -172 q 445 -137 450 -149 q 432 -119 440 -126 q 411 -111 424 -111 l 313 -111 l 301 -97 l 301 65 q 308 78 301 74 q 321 82 314 82 q 350 74 335 82 q 380 54 365 65 q 409 33 394 43 q 438 17 424 22 q 468 10 456 10 q 500 11 481 11 q 532 13 518 11 q 557 17 546 14 q 580 27 568 21 q 607 43 592 33 q 691 115 658 76 q 742 197 724 153 q 769 291 761 240 q 776 400 776 342 q 758 519 776 456 q 706 635 740 582 q 622 722 672 688 q 506 757 571 757 q 485 756 499 757 q 471 756 472 756 q 457 753 468 756 q 443 750 446 751 q 434 749 442 750 q 418 748 426 749 q 403 747 410 747 q 394 744 396 746 q 388 739 393 744 q 376 727 382 733 q 364 715 369 721 q 357 707 358 708 q 333 687 349 700 q 307 674 317 674 q 304 674 307 674 q 301 675 303 674 q 272 717 292 703 q 226 738 251 732 q 174 745 201 744 q 119 746 146 746 q 86 743 103 746 q 56 733 69 740 q 33 714 42 726 q 24 681 24 701 q 44 644 24 653 q 91 633 64 636 q 145 624 118 629 q 188 599 172 619 q 188 581 188 594 q 189 563 189 567 q 185 514 189 538 q 182 465 182 490 q 185 411 182 438 q 189 357 189 385 q 185 313 189 333 q 182 269 182 292 q 185 245 182 257 q 188 221 188 233 l 188 218 q 185 201 188 215 q 182 185 183 188 l 182 176 q 185 142 182 158 q 189 106 189 125 q 183 5 189 54 q 176 -97 178 -44 l 167 -111 l 57 -111 q 37 -118 44 -111 q 24 -135 29 -125 q 16 -157 18 -146 q 14 -178 14 -168 m 313 321 l 313 383 q 321 484 313 439 q 367 571 329 529 q 384 589 374 578 q 405 610 394 600 q 424 628 415 621 q 432 636 432 636 l 531 636 q 562 620 547 636 q 585 593 576 604 q 624 538 610 563 q 644 489 638 514 q 653 435 651 464 q 656 369 656 407 l 656 310 q 640 250 653 281 q 605 195 626 219 q 555 156 583 171 q 496 140 526 140 q 426 156 456 140 q 373 196 396 171 q 335 253 350 221 q 313 321 321 286 z "},"q":{"ha":786,"x_min":14,"x_max":769,"o":"m 324 -186 q 336 -231 324 -211 q 378 -250 349 -250 l 732 -250 q 763 -232 756 -250 q 769 -196 769 -214 q 756 -145 769 -162 q 722 -119 743 -128 q 674 -110 700 -111 q 622 -108 647 -108 l 610 -97 l 610 707 q 592 731 610 721 q 563 740 575 740 q 529 730 540 740 q 512 707 518 719 q 501 684 506 694 q 488 674 496 674 q 471 679 481 674 q 433 708 451 693 q 394 734 414 722 q 351 753 374 746 q 304 761 329 761 q 285 758 296 761 q 263 752 274 756 q 242 745 251 749 q 226 739 232 742 q 128 673 168 715 q 63 578 88 631 q 26 465 38 525 q 14 347 14 406 q 35 226 14 288 q 97 113 57 164 q 190 31 136 63 q 310 -1 244 -1 q 358 2 335 -1 q 406 17 382 6 q 426 31 418 22 q 443 46 435 39 q 462 58 451 53 q 488 64 472 64 l 488 -71 q 483 -90 488 -78 q 471 -108 478 -103 q 421 -109 447 -108 q 373 -116 394 -110 q 338 -138 351 -122 q 324 -186 324 -154 m 133 310 q 133 322 133 314 q 133 341 133 331 q 132 360 132 351 q 132 372 132 368 q 135 449 132 408 q 161 522 138 490 q 195 566 179 544 q 229 603 211 588 q 269 628 247 618 q 321 638 290 638 q 335 637 324 638 q 351 636 347 636 q 407 598 382 625 q 450 537 432 571 q 478 466 468 503 q 488 399 488 429 q 478 313 488 360 q 447 226 468 267 q 392 158 426 185 q 310 131 358 131 q 247 147 276 131 q 193 189 217 163 q 154 247 169 215 q 133 310 139 278 z "},"r":{"ha":738,"x_min":14,"x_max":721,"o":"m 24 79 q 51 22 24 44 q 111 0 78 0 l 269 0 q 291 5 283 4 q 310 6 299 6 q 356 3 333 6 q 403 0 379 0 q 447 2 424 0 q 491 12 471 4 q 524 35 511 19 q 536 79 536 51 q 510 130 536 113 q 451 147 483 147 q 420 144 436 147 q 389 142 404 142 q 363 144 374 142 q 346 163 351 147 q 345 181 346 168 q 344 207 344 193 q 342 233 343 221 q 340 250 340 246 q 338 264 340 253 q 335 278 336 275 l 335 435 q 342 456 335 442 q 358 486 349 471 q 378 515 368 501 q 394 533 389 528 q 411 550 399 538 q 438 576 424 563 q 464 603 451 590 q 482 619 476 615 q 494 626 488 625 q 507 626 500 626 q 517 626 510 626 q 525 619 524 626 q 530 573 526 600 q 543 521 533 546 q 569 478 553 496 q 614 461 586 461 q 697 497 672 461 q 721 585 721 533 q 706 651 721 621 q 668 701 692 681 q 612 734 644 722 q 544 746 579 746 q 438 717 488 746 q 346 653 389 688 l 343 653 q 333 660 338 653 q 324 676 328 667 q 318 695 321 686 q 313 707 315 704 q 268 735 297 728 q 206 744 239 743 q 140 744 172 746 q 85 744 107 742 q 81 746 85 746 q 76 746 78 746 q 31 726 47 746 q 14 678 14 706 q 33 631 14 650 q 79 610 51 613 q 103 608 86 610 q 139 606 119 607 q 175 605 158 606 q 199 604 192 604 l 210 593 l 218 429 l 218 403 l 221 267 q 217 253 219 264 q 215 239 215 242 q 214 220 215 233 q 212 192 213 207 q 210 165 211 178 q 210 147 210 153 l 204 142 q 192 141 203 142 q 176 140 182 140 q 137 144 156 140 q 99 147 118 147 q 45 129 67 147 q 24 79 24 111 z "},"s":{"ha":607,"x_min":14,"x_max":590,"o":"m 14 69 q 24 20 14 44 q 65 -4 35 -4 q 102 7 90 -4 q 119 33 114 18 q 127 60 124 47 q 139 78 131 74 q 182 45 163 65 q 226 18 201 25 q 240 14 231 17 q 260 8 250 11 q 280 3 271 6 q 292 1 289 1 q 307 1 293 1 q 329 0 321 0 q 426 18 379 0 q 509 69 472 36 q 568 146 546 101 q 590 243 590 190 q 565 338 590 294 q 503 415 539 382 q 351 458 432 444 q 193 469 271 472 q 149 493 165 476 q 133 542 133 510 q 140 568 133 554 q 156 594 146 582 q 179 614 167 606 q 204 626 192 622 q 231 627 211 626 q 256 628 250 628 q 286 628 275 628 q 307 626 297 628 q 327 623 317 625 q 357 615 338 621 q 404 581 388 607 q 433 526 421 554 q 460 475 446 497 q 500 453 475 453 q 544 478 529 453 q 558 529 558 504 l 558 546 q 557 576 558 554 q 555 622 556 597 q 553 667 554 646 q 553 697 553 689 q 538 731 554 717 q 503 746 522 746 q 481 740 489 746 q 466 726 472 735 q 453 708 460 718 q 438 692 447 699 q 344 735 396 721 q 242 757 292 750 l 229 757 q 194 752 211 757 q 161 740 176 747 q 59 669 94 713 q 24 553 24 626 q 42 450 24 489 q 92 389 61 411 q 166 357 124 367 q 254 342 208 347 q 347 331 300 336 q 438 311 394 325 q 469 288 461 301 q 476 250 476 274 q 460 194 476 217 q 420 157 444 171 q 366 137 396 143 q 307 131 336 131 q 248 141 274 131 q 201 169 222 151 q 163 209 181 186 q 128 257 146 232 q 118 284 119 268 q 107 311 117 300 q 90 320 100 318 q 71 322 79 322 q 38 310 53 322 q 22 279 22 299 l 22 115 q 15 92 15 101 q 14 69 14 83 z "},"t":{"ha":683,"x_min":14,"x_max":667,"o":"m 221 283 q 238 161 221 214 q 313 64 256 108 q 321 60 314 63 q 335 53 328 57 q 349 47 342 50 q 357 43 356 43 q 381 26 372 32 q 399 16 390 19 q 419 11 408 13 q 451 10 431 10 q 544 35 504 10 q 612 101 585 61 q 653 189 639 140 q 667 285 667 238 q 653 339 667 314 q 604 364 639 364 q 568 348 581 364 q 549 308 556 332 q 535 258 542 285 q 519 207 529 231 q 489 167 508 183 q 436 151 469 151 q 410 160 424 151 q 384 182 396 169 q 365 208 372 194 q 357 233 357 222 l 357 619 l 374 635 q 391 637 375 636 q 415 638 407 638 q 485 628 456 638 q 550 619 515 619 q 595 640 578 619 q 613 688 613 660 q 592 742 613 717 q 539 767 571 767 q 484 763 511 767 q 428 760 457 760 q 397 760 417 760 q 378 761 379 760 l 368 771 q 367 789 367 772 q 367 814 367 806 q 370 878 367 847 q 374 940 374 908 q 365 998 374 974 q 315 1022 356 1022 q 263 998 275 1022 q 248 940 250 974 q 246 871 246 906 q 232 815 246 836 q 195 788 217 793 q 149 783 174 783 q 102 782 125 783 q 63 767 79 781 q 30 735 46 751 q 14 693 14 718 q 26 657 14 676 q 57 638 38 638 l 232 638 l 232 483 q 218 385 215 438 q 221 283 221 332 z "},"u":{"ha":819,"x_min":14,"x_max":804,"o":"m 106 286 q 119 185 106 236 q 159 94 132 135 q 228 26 186 53 q 326 0 269 0 q 391 11 361 0 q 447 41 421 22 q 495 83 472 60 q 542 131 518 106 l 547 131 l 547 71 q 566 38 547 50 q 610 19 585 25 q 659 11 635 13 q 694 10 683 10 q 733 11 714 10 q 769 19 753 13 q 794 39 785 25 q 804 78 804 53 q 792 120 804 106 q 759 142 779 135 q 716 151 739 150 q 672 153 693 153 l 661 164 l 664 425 l 664 451 l 667 599 q 663 636 663 613 q 658 681 663 660 q 643 719 654 703 q 607 735 632 735 l 482 735 q 441 721 456 735 q 426 683 426 707 q 445 644 426 657 q 487 625 464 631 q 528 617 510 619 q 547 610 547 615 l 547 408 q 533 337 547 372 q 499 269 519 301 q 451 209 478 238 q 400 158 425 181 q 365 143 386 146 q 328 140 344 140 q 270 164 288 140 q 247 224 253 188 q 245 273 247 238 q 242 349 243 308 q 239 424 240 389 q 238 474 238 460 q 237 497 238 476 q 236 526 236 517 q 240 583 236 556 q 243 640 243 611 q 241 671 243 654 q 233 702 239 688 q 215 726 226 717 q 182 735 203 735 l 68 735 q 28 718 43 735 q 14 678 14 701 q 25 642 14 653 q 53 626 36 631 q 88 617 69 621 q 122 604 107 614 q 122 590 122 600 q 123 572 122 582 q 124 551 124 561 q 124 539 124 543 q 115 413 124 475 q 106 286 106 350 z "},"v":{"ha":829,"x_min":14,"x_max":814,"o":"m 133 604 q 139 599 139 604 q 172 524 158 563 q 199 447 185 486 q 205 428 200 443 q 215 395 210 413 q 224 363 219 378 q 231 343 229 347 q 235 335 232 342 q 242 319 239 328 q 249 303 246 311 q 253 294 253 296 q 260 276 254 289 q 270 250 265 264 q 280 224 275 236 q 286 207 285 211 q 313 118 299 169 q 351 28 328 67 q 386 0 363 10 q 429 -10 410 -10 q 471 5 449 -10 q 497 39 493 19 q 574 273 533 157 q 650 507 614 389 q 661 533 656 517 q 672 565 667 549 q 684 596 678 582 q 699 615 690 610 q 731 615 711 615 q 769 619 751 615 q 801 633 788 624 q 814 664 814 643 q 805 697 814 685 q 782 717 796 710 q 751 727 768 724 q 715 735 733 731 q 683 735 706 735 q 633 738 660 736 q 584 740 607 739 q 551 740 561 740 l 536 740 q 483 726 507 740 q 458 681 458 713 q 472 649 458 657 q 503 637 485 640 q 540 629 521 633 q 568 610 558 625 q 569 600 568 607 q 569 590 569 593 q 560 551 569 583 q 535 475 550 519 q 501 381 519 431 q 467 288 483 331 q 438 217 451 246 q 421 186 425 189 l 415 192 q 410 201 415 192 q 399 222 406 210 q 388 247 393 235 q 378 268 382 260 q 354 335 363 303 q 335 403 346 367 q 317 447 328 421 q 295 499 306 472 q 276 551 285 525 q 268 596 268 576 q 287 617 268 613 q 328 626 306 622 q 370 640 351 631 q 389 675 389 649 q 380 708 389 696 q 357 726 371 719 q 326 733 343 732 q 294 735 310 735 q 256 732 275 735 q 218 729 238 729 l 215 729 q 201 732 213 729 q 176 738 189 735 q 153 743 164 740 q 139 746 142 746 l 125 746 q 85 743 104 746 q 49 732 65 740 q 24 709 33 724 q 14 672 14 694 l 14 647 q 68 613 36 618 q 133 604 100 607 z "},"w":{"ha":840,"x_min":13,"x_max":824,"o":"m 210 36 q 237 11 222 19 q 272 3 251 3 q 311 14 294 3 q 335 47 328 25 q 366 205 356 125 q 394 363 376 285 q 398 390 397 374 q 400 422 399 406 q 406 451 401 438 q 422 472 411 465 q 437 438 429 469 q 451 360 444 407 q 465 260 458 314 q 481 156 472 206 q 499 69 489 107 q 519 21 508 32 q 544 8 528 11 q 572 4 560 4 q 603 13 590 4 q 628 36 617 22 q 657 125 644 79 q 672 217 669 171 q 682 256 675 229 q 697 315 689 282 q 715 385 706 349 q 733 454 724 421 q 749 514 742 488 q 758 553 756 540 q 760 561 758 554 q 765 576 763 568 q 771 590 768 583 q 775 601 774 597 q 778 608 776 604 q 781 613 779 613 q 788 622 782 615 q 801 635 794 628 q 815 648 808 642 q 824 657 821 654 l 824 675 q 810 713 824 699 q 778 733 797 726 q 736 742 758 740 q 696 744 714 744 q 660 742 679 744 q 624 733 640 740 q 596 711 607 725 q 585 675 585 697 q 594 653 585 660 q 615 641 603 646 q 635 631 626 636 q 644 618 644 626 l 644 547 q 641 529 644 546 q 632 490 638 513 q 621 444 626 467 q 611 407 615 421 q 608 394 611 404 q 601 372 604 383 q 594 349 597 360 q 590 336 590 339 q 588 318 588 329 q 586 296 588 307 q 581 276 585 285 q 568 265 576 268 l 563 271 q 558 291 563 274 q 549 333 554 308 q 542 374 544 358 q 533 436 535 406 q 525 499 531 467 q 522 509 525 500 q 517 528 519 518 q 511 547 514 539 q 508 558 508 556 q 508 570 508 560 q 507 586 507 581 q 508 599 507 589 q 508 613 508 610 q 525 628 515 622 q 543 640 535 633 q 558 653 551 646 q 564 674 564 661 q 545 714 564 700 q 500 735 526 728 q 446 743 474 742 q 400 744 418 744 q 384 744 394 744 q 372 743 374 743 q 359 741 368 743 q 340 736 350 739 q 320 731 329 733 q 307 726 311 728 q 287 710 289 721 q 285 686 285 700 q 292 656 285 665 q 307 641 299 646 q 322 633 315 636 q 329 624 329 629 l 329 558 l 275 308 l 264 286 l 258 286 q 254 299 258 286 q 247 319 250 313 q 234 373 243 335 q 215 455 225 411 q 195 538 204 499 q 182 592 186 576 l 182 600 q 192 616 182 611 q 215 626 203 621 q 238 642 228 632 q 249 675 249 653 q 235 714 249 700 q 202 735 222 728 q 160 743 182 742 q 119 744 138 744 q 81 744 100 744 q 47 737 63 743 q 23 717 32 731 q 14 681 14 704 q 13 663 14 672 q 19 646 13 653 q 27 637 21 643 q 40 624 33 631 q 53 610 47 617 q 63 601 60 604 q 106 447 86 528 q 144 292 126 365 q 172 163 160 226 q 210 36 185 100 z "},"x":{"ha":851,"x_min":14,"x_max":835,"o":"m 79 11 q 179 5 131 10 q 278 0 228 0 q 311 3 294 0 q 342 15 328 7 q 365 35 356 22 q 374 68 374 49 q 365 97 374 85 q 345 117 356 108 q 326 131 335 125 q 318 144 318 138 l 318 147 q 338 185 326 168 q 362 219 349 203 q 388 252 375 236 q 411 288 400 268 q 428 294 418 294 q 451 274 433 294 q 486 226 468 253 q 518 176 504 200 q 531 147 532 153 q 519 131 528 136 q 501 121 511 126 q 484 106 492 115 q 476 76 476 97 q 493 31 476 51 q 536 11 510 11 l 781 11 q 822 35 808 11 q 835 83 835 60 q 826 113 835 99 q 803 131 818 128 l 699 153 q 669 174 688 154 q 633 217 651 193 q 601 263 615 240 q 585 293 588 285 l 508 381 l 508 397 q 589 499 553 446 q 672 599 625 551 q 702 610 683 610 q 740 614 721 611 q 772 627 758 617 q 786 668 786 638 q 769 713 786 694 q 726 733 753 732 q 708 735 724 733 q 674 737 693 736 q 636 738 656 738 q 607 739 617 739 l 592 739 q 554 738 576 739 q 510 731 532 736 q 474 713 489 725 q 458 679 458 701 q 468 644 458 656 q 489 627 478 633 q 510 615 500 621 q 519 600 519 610 q 517 585 519 589 q 503 571 514 582 q 490 557 499 567 q 470 535 481 547 q 451 514 460 524 q 438 500 442 504 l 432 500 q 413 513 425 500 q 389 544 400 526 q 369 579 378 563 q 361 604 361 596 q 368 619 361 614 q 383 630 375 625 q 399 643 392 635 q 406 668 406 651 q 383 714 406 697 q 335 733 361 731 q 294 736 324 735 q 232 740 265 738 q 169 743 199 742 q 128 744 140 744 l 119 744 q 78 734 97 744 q 46 707 60 724 l 46 682 q 60 640 46 654 q 95 621 74 626 q 142 615 117 615 q 188 614 167 614 q 209 597 194 613 q 242 560 224 582 q 279 511 260 538 q 315 461 299 485 q 341 419 331 438 q 351 394 351 400 l 351 392 q 349 383 350 389 q 346 375 347 378 q 332 361 342 371 q 312 340 322 351 q 292 319 301 329 q 281 304 283 308 q 274 295 279 303 q 264 279 269 288 q 253 264 258 271 q 247 256 249 257 q 228 232 242 249 q 201 199 215 215 q 172 168 186 182 q 150 153 158 154 q 110 150 133 151 q 66 142 88 149 q 29 123 44 136 q 14 85 14 110 q 79 11 14 19 z "},"y":{"ha":829,"x_min":14,"x_max":813,"o":"m 14 -122 q 31 -191 14 -160 q 74 -245 47 -222 q 136 -281 101 -268 q 207 -293 171 -293 q 302 -266 254 -293 q 378 -200 350 -239 q 383 -191 379 -199 q 392 -174 388 -183 q 401 -156 397 -164 q 406 -146 404 -149 q 413 -135 407 -144 q 421 -125 419 -126 q 424 -119 422 -124 q 426 -114 426 -115 q 526 153 479 22 q 611 424 574 285 q 620 461 615 440 q 633 503 625 482 q 651 542 640 524 q 676 571 661 560 q 731 571 706 571 q 774 577 756 571 q 802 600 792 583 q 813 650 813 617 q 802 688 813 676 q 775 702 792 699 q 738 706 758 706 q 699 713 718 707 l 519 713 q 478 697 492 713 q 464 658 464 682 q 476 617 464 631 q 502 597 488 604 q 529 583 517 589 q 542 563 542 576 q 542 556 542 561 q 540 549 542 551 q 528 506 538 536 q 509 440 519 475 q 490 375 499 406 q 476 332 481 344 q 469 311 474 326 q 459 280 465 296 q 445 251 453 264 q 429 239 438 239 q 415 248 421 239 q 404 268 408 257 q 398 290 400 279 q 394 304 396 301 q 389 320 393 308 q 379 346 385 332 q 369 372 374 360 q 361 392 364 385 q 343 431 354 410 q 322 474 332 451 q 303 517 311 496 q 296 558 296 539 q 310 578 296 571 q 340 592 324 585 q 369 611 356 599 q 383 649 383 624 q 376 674 383 663 q 356 694 368 686 q 328 708 343 703 q 301 713 314 713 l 85 713 q 56 702 67 713 q 39 677 44 692 q 31 646 33 663 q 29 615 29 629 q 43 588 29 596 q 74 576 57 579 q 90 575 78 576 q 115 573 101 574 q 140 572 128 572 q 156 571 151 571 q 190 522 179 556 q 204 463 201 489 q 230 399 211 444 q 269 302 249 353 q 309 206 290 251 q 335 142 328 160 q 340 126 336 136 q 347 106 344 117 q 353 87 350 96 q 356 76 356 78 q 357 63 357 75 q 357 46 357 51 q 351 6 357 28 q 337 -36 346 -15 q 316 -76 328 -57 q 292 -108 304 -94 q 278 -120 286 -112 q 262 -135 269 -128 q 248 -147 254 -142 q 242 -151 242 -151 l 204 -151 q 199 -147 200 -151 q 199 -140 199 -143 q 204 -116 199 -126 q 210 -90 210 -106 q 189 -22 210 -50 q 125 7 168 7 q 43 -32 72 7 q 14 -122 14 -71 z "},"z":{"ha":672,"x_min":14,"x_max":656,"o":"m 14 74 q 38 19 14 38 q 99 0 63 0 q 133 3 117 0 q 169 6 150 6 q 222 3 197 6 q 274 0 246 0 q 307 0 290 0 q 340 8 325 0 l 607 8 q 627 16 618 8 q 642 35 636 24 q 652 60 649 47 q 656 82 656 72 l 656 272 q 651 297 656 283 q 639 322 647 310 q 619 341 631 333 q 596 349 608 349 q 553 323 564 349 q 539 264 543 297 q 529 199 535 231 q 503 153 524 167 q 492 147 499 150 q 479 140 486 143 q 467 133 472 136 q 460 131 461 131 l 214 131 q 211 142 214 133 q 210 153 208 150 q 229 183 217 168 q 256 214 242 199 q 283 242 269 229 q 307 267 297 256 q 369 335 339 300 q 433 403 399 371 l 471 440 q 506 482 490 461 q 542 522 521 503 q 558 538 546 526 q 585 563 571 550 q 611 588 599 576 q 629 604 624 600 q 640 626 639 615 q 640 650 640 638 q 640 663 640 653 q 639 675 640 672 q 574 713 617 706 q 536 713 563 713 q 479 715 510 714 q 422 717 449 715 q 383 718 394 718 q 290 728 336 721 q 196 735 243 735 q 138 719 168 735 q 101 675 108 703 l 63 511 l 63 494 q 71 449 63 469 q 110 428 79 428 q 144 442 131 428 q 166 477 157 457 q 183 519 175 497 q 204 554 192 540 q 270 598 226 581 q 349 615 314 615 q 396 611 372 615 q 443 604 419 607 q 450 596 450 603 q 450 586 450 589 q 449 580 450 583 q 449 576 449 576 l 383 511 l 372 489 l 193 310 q 151 251 181 281 q 92 192 122 221 q 38 133 61 163 q 14 74 14 104 z "},"ล":{"ha":1239,"x_min":14,"x_max":1222,"o":"m 14 688 l 14 311 q 22 276 14 296 q 40 238 29 257 q 64 200 51 218 q 85 169 76 182 q 141 95 113 128 q 204 39 169 63 q 281 3 239 15 q 376 -10 322 -10 l 394 -10 q 414 -3 400 -8 q 444 6 428 1 q 474 16 460 11 q 493 24 488 21 q 515 37 504 28 q 535 55 525 46 q 556 71 544 64 q 581 78 567 78 l 586 78 q 594 53 589 67 q 606 29 599 40 q 625 11 614 18 q 651 4 636 4 l 1069 4 q 1092 -3 1083 -3 q 1115 -4 1101 -4 q 1193 24 1164 -4 q 1222 100 1222 51 q 1217 160 1222 131 q 1211 222 1211 190 q 1215 265 1211 244 q 1218 308 1218 286 q 1217 343 1218 322 q 1209 382 1215 364 q 1191 413 1203 400 q 1157 426 1179 426 q 1118 407 1136 426 q 1100 365 1100 388 l 1100 219 q 1088 200 1093 213 q 1074 176 1082 188 q 1058 157 1067 165 q 1038 149 1050 149 l 743 149 q 741 152 743 149 q 738 158 739 156 l 732 175 l 732 442 q 739 459 732 449 q 754 469 746 469 l 819 469 q 843 460 832 469 q 863 436 854 450 q 879 409 872 422 q 890 388 886 396 q 891 371 890 383 q 892 344 892 358 q 894 318 893 331 q 896 300 896 306 q 910 263 899 276 q 939 235 921 250 l 953 235 q 986 256 974 235 q 999 294 999 276 l 999 747 q 985 782 999 768 q 953 796 972 796 q 920 781 929 796 q 908 743 911 765 q 901 694 904 721 q 885 646 897 668 q 848 608 874 624 q 774 593 822 593 q 759 594 768 593 q 749 594 750 594 l 732 611 l 732 824 q 736 843 732 826 q 743 867 740 860 q 746 870 744 868 q 749 872 747 872 l 1015 872 q 1038 863 1028 872 q 1054 844 1047 853 q 1064 832 1058 840 q 1075 816 1069 824 q 1085 802 1081 808 q 1089 796 1089 796 l 1089 632 q 1108 593 1089 608 q 1149 578 1128 578 q 1189 592 1172 578 q 1206 632 1206 607 l 1206 954 q 1191 989 1206 972 q 1157 1006 1176 1006 l 792 1006 q 754 1015 776 1015 q 715 1014 732 1014 q 668 1013 689 1014 q 631 1006 647 1013 q 603 985 614 1000 q 586 943 592 971 l 581 943 q 479 1013 536 990 q 360 1036 422 1036 q 274 1026 318 1036 q 193 992 229 1015 q 179 978 189 988 q 158 957 169 968 q 136 935 146 946 q 122 921 126 925 q 117 913 121 919 q 113 904 113 907 q 101 891 110 901 q 90 878 93 881 q 80 856 88 871 q 65 823 72 840 q 50 790 57 806 q 42 768 43 774 q 38 756 40 765 q 31 734 35 746 q 24 712 26 722 q 19 699 21 701 q 17 692 18 696 q 14 688 15 689 m 111 504 q 120 608 111 551 q 149 717 129 664 q 199 815 168 771 q 275 883 231 858 q 289 890 279 886 q 303 894 299 894 l 406 894 q 417 890 408 894 q 438 881 426 886 q 460 871 449 876 q 476 861 471 865 q 535 799 510 839 q 576 712 560 758 q 599 617 592 665 q 607 532 607 569 q 594 412 607 471 q 564 294 582 353 q 526 232 550 254 q 465 186 501 210 q 441 169 451 176 q 421 158 431 163 q 399 150 411 153 q 371 147 388 147 q 322 149 351 147 q 275 158 292 151 q 269 164 274 160 q 258 172 264 168 q 249 181 253 176 q 243 186 244 185 q 183 250 208 213 q 142 329 158 288 q 119 416 126 371 q 111 504 111 461 z "},"โ":{"ha":563,"x_min":14,"x_max":547,"o":"m 14 528 q 39 474 14 496 q 96 451 64 451 l 275 451 l 301 460 l 492 460 q 533 485 518 460 q 547 532 547 510 q 540 557 547 547 q 521 572 532 567 q 496 581 510 578 q 469 588 482 585 q 363 594 417 589 q 257 599 310 599 q 236 599 247 599 q 215 593 225 599 q 190 592 208 593 q 165 592 172 592 q 126 595 144 592 q 88 599 107 599 q 36 577 58 599 q 14 528 14 556 z "},"ยข":{"ha":890,"x_min":14,"x_max":875,"o":"m 14 -124 q 33 -152 14 -147 q 71 -157 51 -157 q 111 -149 96 -157 q 138 -128 126 -142 q 158 -96 149 -114 q 182 -58 168 -78 q 189 -50 183 -57 q 201 -35 194 -43 q 214 -19 208 -26 q 221 -10 219 -12 q 234 10 228 0 q 253 22 240 19 q 324 3 286 13 q 397 -6 363 -6 q 463 15 435 -6 q 519 56 492 36 q 529 60 521 57 q 547 69 538 64 q 565 77 557 74 q 575 82 572 81 q 608 112 590 93 q 640 153 625 131 q 663 200 654 176 q 672 246 672 224 q 658 282 672 268 q 621 296 644 296 q 592 288 604 296 q 572 269 581 281 q 557 244 564 257 q 542 218 550 231 q 461 151 511 176 q 360 125 411 125 q 344 126 357 125 q 329 126 332 126 q 324 132 324 128 q 324 140 324 136 q 336 174 324 151 q 366 221 349 196 q 401 269 383 246 q 428 306 418 292 q 443 328 432 311 q 466 363 454 344 q 489 397 478 381 q 504 419 500 413 l 510 425 q 568 432 540 426 q 617 450 596 438 q 651 485 638 463 q 667 544 664 508 q 668 569 667 551 q 670 605 669 586 q 672 641 671 624 q 672 665 672 658 q 719 747 693 708 q 774 825 746 786 q 827 903 801 864 q 874 986 853 943 q 874 992 874 988 q 875 1000 875 997 q 853 1033 875 1021 q 811 1046 831 1046 q 771 1023 793 1046 q 725 967 749 1000 q 678 893 701 933 q 633 819 654 853 q 594 763 611 786 q 567 740 576 740 q 543 746 554 740 q 519 751 532 751 l 394 751 q 329 732 363 751 q 269 697 296 713 q 182 624 219 667 q 119 531 144 582 q 81 424 93 481 q 68 308 68 367 q 74 246 68 279 q 96 186 81 213 q 108 168 100 179 q 124 145 115 157 q 138 122 132 133 q 144 104 144 110 q 142 97 144 103 q 139 88 140 90 q 107 40 128 69 q 65 -22 86 10 q 29 -81 44 -53 q 14 -124 14 -108 m 182 331 q 225 488 182 414 q 335 610 268 563 q 358 626 350 621 q 382 632 365 632 q 402 624 396 632 q 410 603 408 615 q 410 578 411 592 q 411 556 410 565 q 414 542 411 553 q 417 529 417 532 l 417 510 q 404 469 417 492 q 375 422 392 446 q 341 376 358 397 q 314 339 324 354 q 276 269 292 304 q 226 208 260 233 q 222 207 225 207 q 221 207 221 207 q 202 223 210 207 q 190 260 194 239 q 184 302 186 282 q 182 331 182 322 z "},"ร":{"ha":846,"x_min":13,"x_max":829,"o":"m 13 79 q 31 25 13 50 q 81 0 49 0 q 135 6 108 0 q 189 11 161 11 q 228 8 210 11 q 267 6 247 6 q 319 19 297 6 q 340 65 340 33 q 327 106 340 94 q 299 125 314 118 q 270 140 283 132 q 257 172 257 149 q 258 182 257 175 q 258 190 258 189 l 297 272 q 310 284 299 275 q 324 293 321 293 l 542 293 q 555 283 549 293 q 567 261 561 274 q 575 238 572 249 q 579 222 578 226 q 582 211 581 219 q 585 193 583 203 q 589 175 588 183 q 590 163 590 167 q 576 145 586 151 q 552 133 565 139 q 526 122 539 128 q 503 103 513 115 l 503 79 q 512 40 503 54 q 536 20 521 26 q 571 13 551 14 q 613 11 590 11 q 683 8 646 10 q 756 6 721 6 q 808 23 788 6 q 829 74 829 40 q 803 125 829 108 q 778 131 793 128 q 747 138 763 133 q 720 151 732 143 q 704 174 708 160 l 574 668 q 542 762 550 713 q 519 858 533 811 q 510 897 515 874 q 497 944 506 921 q 472 983 488 967 q 432 1000 457 1000 q 396 987 410 1000 q 374 955 382 974 q 360 916 365 936 q 351 881 356 896 q 309 747 332 814 q 264 614 286 681 q 249 554 253 583 q 232 494 244 525 q 219 446 228 481 q 199 372 210 411 q 180 299 189 333 q 167 250 171 264 q 152 201 161 231 q 122 163 143 172 q 89 150 103 154 q 63 140 75 146 q 40 127 51 135 q 14 103 28 119 q 13 91 14 100 q 13 79 13 82 m 335 418 q 334 426 335 421 q 333 435 333 432 q 344 508 333 471 q 367 582 356 546 q 374 603 368 586 q 389 643 381 621 q 405 686 397 665 q 417 718 413 707 q 421 728 418 721 q 429 735 424 735 q 438 716 431 735 q 454 669 444 697 q 475 606 464 640 q 495 538 486 571 q 510 478 504 506 q 515 440 515 451 q 515 431 515 438 q 514 424 514 425 l 508 418 q 452 411 479 415 q 397 407 425 407 q 364 408 378 407 q 335 418 350 408 m 182 1161 q 209 1098 182 1125 q 272 1071 236 1071 q 332 1101 313 1071 q 351 1167 351 1131 q 334 1233 351 1204 q 272 1263 317 1263 q 237 1253 253 1263 q 208 1230 221 1244 q 189 1197 196 1215 q 182 1161 182 1179 m 497 1161 q 517 1100 497 1125 q 576 1075 536 1075 q 646 1106 619 1075 q 672 1176 672 1136 q 649 1239 672 1217 q 588 1261 626 1261 q 520 1233 543 1261 q 497 1161 497 1206 z "},"ร":{"ha":846,"x_min":13,"x_max":829,"o":"m 13 89 q 31 35 13 60 q 81 10 49 10 q 135 15 108 10 q 189 21 161 21 q 228 18 210 21 q 267 15 247 15 q 319 29 297 15 q 340 75 340 43 q 327 116 340 104 q 299 135 314 128 q 270 150 283 142 q 257 182 257 158 q 258 192 257 185 q 258 200 258 199 l 297 282 q 310 294 299 285 q 324 303 321 303 l 542 303 q 555 293 549 303 q 567 271 561 283 q 575 247 572 258 q 579 232 578 236 q 582 221 581 229 q 585 203 583 213 q 589 185 588 193 q 590 172 590 176 q 576 155 586 161 q 552 143 565 149 q 526 131 539 138 q 503 113 513 125 l 503 89 q 512 50 503 64 q 536 30 521 36 q 571 22 551 24 q 613 21 590 21 q 683 17 646 19 q 756 15 721 15 q 808 33 788 15 q 829 83 829 50 q 803 135 829 118 q 778 140 793 138 q 747 148 763 143 q 720 161 732 153 q 704 183 708 169 l 574 678 q 542 772 550 722 q 519 868 533 821 q 510 907 515 883 q 497 953 506 931 q 472 993 488 976 q 432 1010 457 1010 q 396 997 410 1010 q 374 965 382 983 q 360 926 365 946 q 351 890 356 906 q 309 757 332 824 q 264 624 286 690 q 249 564 253 593 q 232 504 244 535 q 219 456 228 490 q 199 382 210 421 q 180 308 189 343 q 167 260 171 274 q 152 211 161 240 q 122 172 143 182 q 89 160 103 164 q 63 150 75 156 q 40 137 51 144 q 14 113 28 129 q 13 101 14 110 q 13 89 13 92 m 335 428 q 334 436 335 431 q 333 444 333 442 q 344 518 333 481 q 367 592 356 556 q 374 613 368 596 q 389 653 381 631 q 405 696 397 675 q 417 728 413 717 q 421 738 418 731 q 429 744 424 744 q 438 726 431 744 q 454 678 444 707 q 475 615 464 650 q 495 548 486 581 q 510 488 504 515 q 515 450 515 461 q 515 441 515 447 q 514 433 514 435 l 508 428 q 452 421 479 425 q 397 417 425 417 q 364 417 378 417 q 335 428 350 418 m 269 1225 q 283 1163 269 1192 q 320 1114 297 1135 q 373 1081 343 1093 q 435 1069 403 1069 q 495 1083 467 1069 q 544 1119 524 1096 q 578 1170 565 1142 q 590 1231 590 1199 q 545 1347 590 1303 q 431 1392 500 1392 q 375 1388 403 1392 q 324 1368 347 1383 q 284 1301 299 1333 q 269 1225 269 1269 m 376 1235 q 377 1246 376 1238 q 378 1254 378 1254 l 394 1271 l 460 1271 q 471 1263 463 1271 q 482 1249 479 1254 l 482 1229 q 469 1190 482 1201 q 429 1178 457 1178 q 388 1192 400 1178 q 376 1235 376 1206 z "},"ร":{"ha":1233,"x_min":14,"x_max":1217,"o":"m 1021 1 q 1059 -10 1040 -10 q 1100 -11 1078 -11 q 1120 -10 1104 -11 q 1140 -10 1136 -10 q 1192 24 1167 1 q 1217 78 1217 47 q 1215 128 1217 103 q 1203 175 1214 153 l 1203 356 q 1184 400 1203 378 q 1143 422 1165 422 q 1099 396 1115 422 q 1083 344 1083 369 l 1083 197 q 1081 192 1083 196 q 1075 186 1078 189 l 1038 149 q 985 146 1022 147 q 904 142 947 144 q 824 139 861 140 q 771 138 786 138 l 753 138 q 730 141 743 138 q 717 158 717 144 l 717 442 l 732 458 l 803 458 q 822 448 811 458 q 844 424 833 438 q 863 397 854 411 q 874 376 871 383 q 874 337 874 361 q 880 290 875 313 q 898 251 885 267 q 936 235 911 235 q 970 246 957 235 q 983 279 983 257 l 983 747 q 968 781 983 767 q 933 796 953 796 q 899 777 910 796 q 883 733 888 758 q 878 681 879 707 q 874 638 878 654 q 847 615 864 625 q 810 598 829 606 q 771 587 790 590 q 738 583 751 583 q 724 584 732 583 q 717 594 717 585 l 717 850 q 726 862 717 858 q 747 867 735 865 q 770 867 758 868 q 788 867 782 867 l 814 867 q 850 866 824 867 q 906 864 876 865 q 962 862 936 863 q 999 861 988 861 q 1020 853 1008 861 q 1042 832 1032 844 q 1060 806 1053 819 q 1069 785 1067 793 q 1074 729 1074 765 q 1078 657 1074 693 q 1093 594 1082 621 q 1132 567 1104 567 q 1172 588 1156 567 q 1189 632 1189 608 l 1189 938 q 1180 967 1189 956 q 1157 985 1171 978 q 1127 997 1143 993 q 1097 1003 1111 1000 q 1019 1003 1075 1003 q 901 1006 964 1004 q 783 1008 839 1007 q 706 1008 728 1008 l 515 1008 q 491 1013 500 1013 q 468 1014 482 1014 q 413 1000 428 1014 q 394 965 399 986 q 385 918 389 944 q 363 867 381 892 l 264 535 l 253 507 l 156 186 q 124 156 147 161 q 77 145 101 150 q 33 126 53 140 q 14 69 14 111 q 23 40 14 51 q 47 20 32 28 q 77 10 61 13 q 108 7 93 7 q 149 10 129 7 q 190 13 169 13 q 232 10 213 13 q 272 7 251 7 q 322 18 299 7 q 346 57 346 29 q 322 114 346 89 q 269 149 299 139 q 269 159 269 151 q 268 169 268 167 q 279 226 268 197 q 314 274 290 256 q 333 274 319 274 q 363 276 347 275 q 392 278 378 276 q 411 279 406 279 q 425 281 414 279 q 439 285 436 283 l 581 285 l 590 274 l 590 154 l 585 149 q 534 146 560 147 q 487 138 508 144 q 451 114 465 131 q 438 65 438 97 q 438 53 438 61 q 439 44 438 46 l 460 24 l 525 4 l 726 4 q 757 -4 742 -4 q 788 -4 772 -4 q 819 -4 804 -4 q 853 1 836 -4 l 1021 1 m 346 433 l 346 442 q 351 466 347 449 q 361 502 356 483 q 372 538 367 521 q 379 561 376 554 q 395 611 383 575 q 421 688 407 647 q 447 763 435 728 q 465 813 460 799 q 501 858 481 849 q 561 867 522 867 q 585 865 575 867 q 601 844 594 864 q 602 830 601 842 q 603 815 603 818 q 602 786 603 800 q 593 758 601 772 l 593 410 l 383 410 q 359 415 372 410 q 346 433 346 421 z "},"ร":{"ha":754,"x_min":14,"x_max":738,"o":"m 365 1050 q 243 1022 296 1050 q 151 947 190 993 q 86 844 113 901 q 42 728 60 786 q 34 701 39 718 q 25 666 29 683 q 17 635 21 649 q 14 619 14 621 l 14 396 q 16 386 14 394 q 20 367 18 378 q 25 347 22 357 q 31 331 28 336 q 54 269 39 304 q 90 199 69 235 q 133 133 110 164 q 182 86 157 103 q 197 78 185 83 q 221 66 208 72 q 244 54 233 60 q 258 47 256 49 q 315 21 289 32 q 376 10 340 10 q 410 13 397 10 q 433 22 422 17 q 454 34 443 28 q 482 47 465 40 q 606 131 557 76 q 685 255 656 186 q 726 401 714 324 q 738 551 738 478 q 718 697 738 626 q 667 838 699 768 q 632 884 646 858 q 601 935 618 910 q 578 956 593 947 q 553 972 564 964 q 508 1005 529 990 q 464 1029 486 1019 q 418 1044 442 1039 q 365 1050 394 1050 m 133 532 q 148 644 133 578 q 192 772 163 711 q 265 876 221 833 q 371 919 310 919 q 433 901 410 919 q 488 858 457 882 q 539 806 519 833 q 571 750 558 779 q 591 688 583 721 q 607 619 599 656 l 607 440 q 599 403 607 417 q 585 369 592 389 q 565 310 578 344 q 533 247 553 276 q 488 195 514 217 q 428 174 461 174 l 292 174 q 257 192 276 174 q 219 233 238 210 q 185 282 200 257 q 167 319 171 307 q 142 424 150 369 q 133 532 133 479 m 117 1215 q 144 1152 117 1179 q 207 1125 171 1125 q 267 1155 249 1125 q 286 1221 286 1185 q 269 1288 286 1258 q 207 1317 251 1317 q 172 1308 188 1317 q 143 1284 156 1299 q 124 1251 131 1269 q 117 1215 117 1233 m 432 1215 q 452 1154 432 1179 q 513 1129 472 1129 q 581 1160 554 1129 q 607 1232 607 1192 q 584 1294 607 1272 q 522 1317 561 1317 q 455 1288 478 1317 q 432 1215 432 1260 z "},"ร":{"ha":846,"x_min":14,"x_max":829,"o":"m 14 24 q 33 -5 14 0 q 71 -10 51 -10 q 124 7 104 -10 q 160 48 144 24 q 189 98 175 72 q 226 143 203 124 q 265 97 236 121 q 330 55 294 74 q 403 24 365 36 q 468 11 440 11 q 502 15 489 11 q 525 24 515 18 q 546 37 535 31 q 574 50 557 43 q 698 133 649 78 q 776 256 747 188 q 817 402 806 325 q 829 553 829 479 q 810 699 829 628 q 758 839 790 769 q 737 865 749 849 q 725 896 725 881 q 726 900 725 897 q 726 904 726 903 q 745 928 733 914 q 769 959 757 943 q 792 992 782 975 q 803 1024 801 1008 q 801 1040 803 1026 q 797 1056 799 1053 q 767 1066 783 1065 q 735 1067 750 1067 l 704 1067 q 690 1049 700 1063 q 669 1022 679 1036 q 649 996 658 1007 q 636 985 640 985 q 615 992 628 985 q 586 1010 601 1000 q 556 1031 571 1021 q 531 1044 542 1040 q 496 1051 510 1051 q 457 1051 483 1051 q 335 1023 388 1051 q 244 949 283 994 q 178 845 206 903 q 133 729 151 788 q 126 702 131 719 q 117 667 121 685 q 110 637 113 650 q 107 621 107 624 l 107 399 q 125 319 107 363 q 161 246 143 276 q 121 203 146 235 q 72 135 96 171 q 31 68 49 100 q 14 24 14 36 m 301 263 q 307 275 301 274 q 318 283 313 276 q 373 366 346 322 q 422 453 400 410 q 424 463 422 454 q 426 474 426 472 q 433 493 429 481 q 438 507 438 506 q 443 510 439 508 q 449 513 447 511 q 456 523 457 518 q 460 539 454 528 q 474 551 464 549 q 488 561 483 553 q 490 572 488 563 q 492 583 492 581 q 502 593 497 592 q 514 599 507 594 q 519 608 514 599 q 531 627 525 617 q 542 647 536 638 q 547 658 547 657 q 558 671 550 663 q 576 689 567 679 q 594 707 586 699 q 607 718 603 715 q 615 733 611 722 q 622 756 618 744 q 632 775 626 767 q 644 783 638 783 q 665 742 657 761 q 679 703 674 722 q 689 665 685 685 q 699 621 693 644 l 699 442 q 691 405 699 418 q 676 371 683 392 q 657 312 669 346 q 625 248 644 278 q 579 197 606 218 q 519 175 553 175 l 383 175 q 357 184 371 175 q 331 207 343 193 q 310 235 318 221 q 301 263 301 250 m 225 533 q 240 646 225 579 q 283 774 254 713 q 357 878 313 835 q 463 921 401 921 q 488 917 471 921 q 519 908 504 914 q 547 892 535 901 q 558 871 558 882 q 543 833 558 846 q 519 800 528 819 q 475 719 500 757 q 422 643 450 682 q 410 618 411 628 q 394 599 408 608 q 390 594 390 596 q 389 589 389 592 q 388 582 389 586 q 383 572 388 578 q 348 529 368 549 q 313 485 328 510 q 299 458 306 474 q 284 427 292 443 q 267 397 276 411 q 247 376 258 383 q 234 409 239 389 q 227 452 229 429 q 225 496 225 475 q 225 533 225 518 z "},"ร":{"ha":835,"x_min":14,"x_max":819,"o":"m 14 69 q 23 31 14 46 q 47 9 32 17 q 81 -1 61 1 q 119 -4 100 -4 q 169 -3 133 -4 q 244 2 206 -3 q 313 17 283 7 q 343 44 343 26 l 343 778 q 347 797 343 783 q 356 825 350 811 q 371 849 363 839 q 389 860 379 860 l 514 860 q 533 846 521 854 q 558 828 546 838 q 581 808 571 818 q 590 789 590 797 l 590 692 q 584 675 590 683 q 569 659 578 667 q 551 646 561 651 q 536 638 542 640 q 488 628 517 629 q 430 621 458 626 q 381 602 401 615 q 361 557 361 589 q 375 528 361 542 q 406 515 389 515 l 563 515 q 567 513 563 515 q 574 507 571 510 q 581 501 575 506 q 592 490 586 496 q 604 480 599 485 q 611 474 610 475 q 642 454 625 463 q 667 431 658 446 q 676 413 671 424 q 686 391 681 401 q 695 373 692 381 q 699 365 699 365 l 699 251 q 692 236 699 251 q 682 214 686 221 q 637 158 667 178 q 571 128 607 138 q 497 119 535 119 q 426 121 458 118 q 390 103 401 124 q 378 63 378 83 q 394 17 378 38 q 438 -4 410 -4 l 563 -4 q 633 15 603 -4 q 693 56 664 35 q 721 69 710 67 q 742 89 732 72 q 770 140 756 111 q 795 199 785 168 q 813 260 806 229 q 819 319 819 292 q 805 407 819 364 q 764 485 790 450 q 745 504 760 490 q 714 534 731 518 q 684 563 697 550 q 671 578 671 575 q 680 600 671 590 q 693 621 689 610 q 713 676 704 647 q 721 732 721 704 q 708 809 721 765 q 676 882 696 853 q 576 967 629 932 q 451 1001 522 1001 q 383 990 418 1001 q 316 959 347 979 q 263 910 285 939 q 236 843 240 881 q 234 795 233 822 q 224 746 235 768 l 224 175 q 217 156 224 169 q 204 138 211 142 q 184 137 200 138 q 164 136 168 136 q 122 140 142 136 q 82 143 103 143 q 32 122 50 143 q 14 69 14 100 z "},"รค":{"ha":775,"x_min":14,"x_max":758,"o":"m 14 215 q 40 101 14 150 q 122 18 65 51 q 144 3 133 11 q 171 -4 156 -4 l 296 -4 q 342 5 319 -4 q 385 27 364 14 q 426 54 406 40 q 465 78 446 68 l 472 78 q 490 71 482 78 q 503 55 497 64 q 516 37 510 46 q 531 24 522 28 q 574 2 554 8 q 619 -4 593 -4 q 678 11 653 -4 q 722 51 704 26 q 749 106 739 75 q 758 167 758 136 q 756 195 758 181 q 746 222 753 210 q 728 243 739 235 q 701 251 717 251 q 663 232 672 251 q 650 188 654 213 q 640 144 646 164 q 613 125 635 125 q 579 164 579 125 l 579 399 q 585 437 586 415 q 585 475 585 458 l 585 518 q 583 533 585 522 q 578 555 581 543 q 572 578 575 567 q 568 593 569 589 q 547 633 564 610 q 506 678 529 657 q 459 714 483 699 q 417 729 435 729 l 204 729 q 165 716 182 729 q 133 692 149 703 q 97 665 115 679 q 65 633 79 650 q 43 597 51 617 q 35 553 35 578 q 63 481 35 510 q 136 451 92 451 q 183 463 165 451 q 209 492 200 475 q 222 531 218 510 q 230 569 226 551 q 238 598 233 586 q 253 610 242 610 l 383 610 q 401 601 385 610 q 426 589 418 593 q 457 556 449 576 q 465 511 465 535 q 432 467 465 478 q 349 451 399 456 q 240 442 299 447 q 131 416 181 438 q 47 348 81 394 q 14 215 14 301 m 122 217 q 133 253 122 232 q 150 283 143 274 q 182 306 164 304 q 251 314 217 311 q 318 322 285 317 q 341 326 322 322 q 381 333 360 329 q 420 340 401 336 q 443 343 439 343 l 446 344 q 448 344 447 344 q 449 343 449 343 q 454 341 450 343 q 460 339 458 339 l 460 322 q 442 225 460 263 q 372 153 424 188 q 359 146 369 151 q 346 138 349 140 q 333 131 340 135 q 324 126 325 126 l 182 126 q 157 136 168 126 q 138 160 146 146 q 126 190 131 175 q 122 217 122 206 m 85 928 q 111 865 85 892 q 174 838 138 838 q 234 867 215 838 q 253 933 253 897 q 235 1000 253 971 q 175 1029 218 1029 q 140 1020 156 1029 q 111 997 124 1011 q 92 964 99 982 q 85 928 85 946 m 400 928 q 419 867 400 892 q 479 843 439 843 q 547 874 521 843 q 574 944 574 904 q 551 1007 574 985 q 489 1029 528 1029 q 422 1001 444 1029 q 400 928 400 972 z "},"รฅ":{"ha":775,"x_min":14,"x_max":758,"o":"m 14 219 q 40 105 14 154 q 122 22 65 56 q 144 8 133 15 q 171 0 156 0 l 296 0 q 342 9 319 0 q 385 31 364 18 q 426 58 406 44 q 465 82 446 72 l 472 82 q 490 75 482 82 q 503 59 497 68 q 516 41 510 50 q 531 28 522 32 q 574 6 554 13 q 619 0 593 0 q 678 15 653 0 q 722 55 704 31 q 749 110 739 79 q 758 171 758 140 q 756 199 758 185 q 746 226 753 214 q 728 247 739 239 q 701 256 717 256 q 663 236 672 256 q 650 192 654 217 q 640 149 646 168 q 613 129 635 129 q 579 168 579 129 l 579 403 q 585 441 586 419 q 585 479 585 463 l 585 522 q 583 537 585 526 q 578 559 581 547 q 572 582 575 571 q 568 597 569 593 q 547 638 564 614 q 506 682 529 661 q 459 718 483 703 q 417 733 435 733 l 204 733 q 165 720 182 733 q 133 696 149 707 q 97 669 115 683 q 65 638 79 654 q 43 601 51 621 q 35 557 35 582 q 63 485 35 514 q 136 456 92 456 q 183 467 165 456 q 209 497 200 479 q 222 535 218 514 q 230 573 226 556 q 238 602 233 590 q 253 614 242 614 l 383 614 q 401 606 385 614 q 426 593 418 597 q 457 560 449 581 q 465 515 465 539 q 432 471 465 482 q 349 456 399 460 q 240 447 299 451 q 131 420 181 442 q 47 352 81 399 q 14 219 14 306 m 122 221 q 133 257 122 236 q 150 288 143 278 q 182 310 164 308 q 251 318 217 315 q 318 326 285 321 q 341 330 322 326 q 381 337 360 333 q 420 344 401 340 q 443 347 439 347 l 446 349 q 448 348 447 349 q 449 347 449 347 q 454 345 450 347 q 460 343 458 343 l 460 326 q 442 229 460 267 q 372 157 424 192 q 359 150 369 156 q 346 142 349 144 q 333 135 340 139 q 324 131 325 131 l 182 131 q 157 140 168 131 q 138 165 146 150 q 126 194 131 179 q 122 221 122 210 m 150 943 q 164 883 150 911 q 201 833 178 854 q 253 800 224 813 q 315 788 283 788 q 376 801 347 788 q 425 837 404 814 q 458 888 446 860 q 471 949 471 917 q 426 1065 471 1021 q 310 1110 381 1110 q 256 1106 283 1110 q 204 1088 228 1101 q 165 1019 179 1051 q 150 943 150 988 m 257 953 q 258 964 257 956 q 258 972 258 972 l 275 989 l 340 989 q 351 981 343 989 q 361 968 360 972 q 363 958 363 967 q 363 947 363 951 q 310 896 363 896 q 269 910 281 896 q 257 953 257 924 z "},"รถ":{"ha":678,"x_min":14,"x_max":663,"o":"m 14 382 q 23 308 14 351 q 49 222 32 265 q 88 142 65 179 q 139 86 111 104 q 151 80 140 85 q 173 69 161 75 q 197 56 185 63 q 215 47 208 50 q 243 42 224 44 q 269 38 263 39 q 293 28 285 33 q 309 19 301 24 q 328 13 317 15 q 360 10 339 10 q 444 32 401 10 q 522 88 486 54 q 585 164 558 122 q 624 243 613 206 q 631 274 625 251 q 642 320 636 296 q 653 366 649 344 q 661 396 658 388 q 662 410 661 399 q 663 426 663 422 q 653 497 663 463 q 630 563 644 531 q 598 627 615 596 q 564 690 581 658 q 561 692 563 690 q 558 696 560 694 q 461 763 510 738 q 346 789 413 789 q 195 755 258 789 q 92 664 132 721 q 33 533 51 607 q 14 382 14 460 m 133 381 q 137 454 133 419 q 152 520 140 489 q 184 579 164 551 q 238 631 204 607 q 263 647 246 636 q 281 657 279 657 l 368 657 q 402 642 382 649 q 441 626 422 635 q 476 605 460 617 q 499 575 492 593 q 523 498 514 535 q 532 418 532 461 q 513 288 532 344 q 433 183 493 232 q 388 173 408 174 q 340 172 368 172 q 311 172 331 172 q 292 174 293 172 q 275 175 285 174 q 256 178 265 176 q 240 181 247 179 q 232 183 232 183 l 167 249 q 152 274 158 257 q 142 311 146 292 q 135 350 138 331 q 133 381 133 369 m 68 943 q 95 880 68 907 q 158 853 122 853 q 218 883 199 853 q 238 949 238 913 q 220 1015 238 986 q 158 1044 203 1044 q 123 1035 139 1044 q 94 1012 107 1026 q 75 979 82 997 q 68 943 68 961 m 383 943 q 403 882 383 907 q 463 857 422 857 q 532 888 506 857 q 558 958 558 918 q 535 1021 558 999 q 474 1043 513 1043 q 406 1015 429 1043 q 383 943 383 988 z "},"รธ":{"ha":699,"x_min":14,"x_max":683,"o":"m 14 -4 q 33 -33 14 -28 q 71 -37 51 -37 q 108 -31 93 -37 q 135 -12 124 -24 q 156 15 146 -1 q 176 50 165 31 l 182 50 l 188 50 q 240 31 219 39 q 290 17 260 24 q 315 8 307 13 q 331 -1 324 3 q 349 -8 339 -6 q 381 -11 360 -11 q 465 11 422 -11 q 543 67 507 33 q 606 143 579 101 q 644 224 633 185 q 651 253 646 232 q 663 299 657 275 q 674 345 669 324 q 682 375 679 367 q 683 390 682 378 q 683 406 683 403 q 667 501 683 450 q 628 593 651 553 q 603 628 617 610 q 589 669 589 647 q 601 688 589 679 q 617 707 613 696 q 624 729 621 718 q 633 750 626 740 q 657 778 642 764 q 672 807 672 792 q 654 841 672 831 q 617 853 636 851 q 571 838 590 856 q 538 799 551 821 q 515 758 524 776 q 500 739 506 739 q 435 753 467 739 q 367 767 403 767 q 217 733 279 767 q 113 642 154 699 q 53 513 72 586 q 35 361 35 439 q 53 252 35 303 q 96 147 72 201 l 96 144 q 83 108 96 126 q 55 72 71 90 q 26 35 39 54 q 14 -4 14 15 m 253 164 l 253 169 q 262 186 253 174 q 283 213 271 199 q 305 240 294 228 q 318 256 315 251 q 373 338 346 294 q 421 424 400 381 q 424 435 422 426 q 426 446 426 444 q 433 465 429 453 q 438 479 438 478 q 443 481 439 479 q 449 483 447 483 q 455 495 457 490 q 460 511 453 500 q 474 523 464 521 q 486 533 483 525 q 492 552 489 539 q 506 565 494 565 l 508 565 q 514 560 510 564 q 519 554 518 557 q 544 478 535 514 q 553 397 553 442 q 533 268 553 324 q 454 164 514 213 q 410 153 431 154 q 363 151 390 151 q 308 153 331 151 q 253 164 285 154 m 154 360 q 173 499 154 438 q 258 608 192 561 q 283 626 267 615 q 301 636 300 636 l 389 636 l 421 619 q 416 606 419 617 q 411 593 413 596 q 399 578 406 581 q 389 565 393 575 q 354 510 376 535 q 313 457 332 486 q 287 407 299 433 q 258 360 275 381 q 218 315 236 332 q 188 267 200 297 q 185 260 186 264 q 182 256 183 257 l 179 256 l 176 256 q 160 307 167 282 q 154 360 154 332 z "},"๎":{"ha":0,"x_min":0,"x_max":0,"o":""},"๎":{"ha":694,"x_min":0,"x_max":0,"o":""},"๎":{"ha":797,"x_min":14,"x_max":781,"o":"m 488 294 q 504 262 499 279 q 519 229 510 244 q 563 151 542 192 q 601 71 585 111 q 626 8 614 40 q 661 -49 638 -25 q 689 -60 672 -60 q 718 -60 707 -60 q 731 -60 721 -60 q 751 -59 740 -60 q 772 -55 763 -58 q 781 -43 781 -51 l 781 -6 q 774 9 779 -4 q 761 41 769 22 q 749 71 753 60 q 704 151 729 113 q 656 229 679 190 q 628 285 639 256 q 601 343 617 315 q 524 490 558 414 q 454 642 490 567 q 325 885 394 767 q 193 1126 256 1003 q 184 1145 190 1132 q 171 1174 178 1158 q 158 1204 164 1190 q 150 1224 151 1218 q 104 1251 133 1251 q 78 1250 93 1251 q 48 1244 63 1249 q 24 1231 33 1240 q 14 1207 14 1222 l 14 1196 q 90 1048 47 1121 q 172 903 133 975 q 177 894 174 900 q 182 886 181 889 l 324 610 l 335 593 l 488 294 z "}}}
